/* XPM */
static char *result[] = {
/* columns rows colors chars-per-pixel */
"64 64 96 2 ",
"   c #152734",
".  c #152834",
"X  c #152835",
"o  c #162835",
"O  c #162935",
"+  c #162A35",
"@  c #162A36",
"#  c #172A36",
"$  c #172B36",
"%  c #172C36",
"&  c #172C37",
"*  c #172D37",
"=  c #182D37",
"-  c #182E37",
";  c #182D38",
":  c #182E38",
">  c #182F38",
",  c #192F38",
"<  c #182F39",
"1  c #192F39",
"2  c #1E2F3B",
"3  c #193039",
"4  c #193139",
"5  c #1A3139",
"6  c #19313A",
"7  c #1A313A",
"8  c #19323A",
"9  c #1A323A",
"0  c #1A333A",
"q  c #1A323B",
"w  c #1A333B",
"e  c #1B333B",
"r  c #1B343B",
"t  c #1B353B",
"y  c #1B343C",
"u  c #1B353C",
"i  c #1B363C",
"p  c #1C353C",
"a  c #1C363C",
"s  c #1C363D",
"d  c #1C373D",
"f  c #1D373D",
"g  c #1D373E",
"h  c #1C383D",
"j  c #1C383E",
"k  c #1D383E",
"l  c #1D393E",
"z  c #1D3A3E",
"x  c #1D3A3F",
"c  c #1E3A3F",
"v  c #1E3B3F",
"b  c #1F3D3F",
"n  c #333C3F",
"m  c #713030",
"M  c #1E3C40",
"N  c #1F3C40",
"B  c #1E3D40",
"V  c #1F3D40",
"C  c #1F3D41",
"Z  c #1F3E41",
"A  c #1F3F41",
"S  c #203F41",
"D  c #203F42",
"F  c #204042",
"G  c #3C494D",
"H  c #2E4453",
"J  c #4B4747",
"K  c #4B4B4B",
"L  c #414E53",
"P  c #445358",
"I  c #4C5A5F",
"U  c #515151",
"Y  c #5C5959",
"T  c #5D5D5D",
"R  c #56666C",
"E  c #586A71",
"W  c gray40",
"Q  c #6E6B6B",
"!  c gray46",
"~  c #7C7C7C",
"^  c #883636",
"/  c #667980",
"(  c #838282",
")  c gray52",
"_  c #888888",
"`  c gray61",
"'  c #9E9D9D",
"]  c #929CA0",
"[  c #A0A0A0",
"{  c gray64",
"}  c #A4AEB2",
"|  c gray71",
" . c gray76",
".. c gray79",
"X. c #E2E2E2",
"o. c #F6F4F4",
/* pixels */
"F     F 3 d F F     F   Z < : F     F D   9 z 3 F     F D @ u s . F F M r   F F F @ b s . F F F   F F l x D     $   F     F F   ",
"F F   w O F F v F       F $ d F F     F   Z = d F F     F   = F   X 9 & F     F D   % F     F D   9 F F < M F B F   F F     F   ",
"F v F     F   F F   F   u   F F v F       F   F F v F   3 $ d F F 9 $ d F F   . F $ d F F     F   Z w Z 7 0 & F F F F F F       ",
"  F F v       V F   F Z     F   F F   F       F   F F   F   F F d F   F F v F   d   F F v F       F O w O   3   F F   F F   F   ",
"  V F M F     F     F z F       V F   F F v       V F   &   F   k O   F   F F   $   F   F F   F       F F   F     F     F   F F ",
"  F   z F F     :     l F F     F     F F F F     F     F       e F       V F   F       V F   F F     F r F F F             F F ",
"    :   F F     F F     F F F     :     F F F F     :   Z F     r D F     F     F F     F     F F F     9 F > F F   F F F     F ",
"    F a   F   F F F F .   F F     F F     : F F     F l M F F     S F F     :   B F F     :     F F ....l F   F F     F F F     ",
"  F F F >             F 7   F   F F F F       F   F F Z & F F   O O F F     F Z   F F     F F   ......F l             & F F F   ",
"        & F . F F   F F F               F F           o     F   F 3   F   F F F 9   F   F F ......      9 @ 9 F : &   V x s   Z ",
"  F F   F F 3 M F   F F   4 D   F F   F F F : A   F F   F &       3             : $     ........F F   F F > : o   F     F D + F ",
"  S F   F F . 1 $ : F   y y 9 & F F   F F   O N = F F   F F v   F F 9 F   F F   F F ........  F F F   k 9 Z F F   F F     F   F ",
"d 7 : $ M : F F O k & & V F   o M   $ C & F : F M 1 o O F ; l O F F O F = Z F   ...._ ..Z F   F F   @ 9 @   F F F F F F       F ",
"F   F F   F F   . f a t F 7 F       F . V 6 & v   F F F F F F ' ' ' & v , ......_ ....0 V 6 & v   D 9 > $     F F   F F   F     ",
"F l 9     D   F F 8 O l F 7 F   F       F F         F F   F ' ' ' _ '  . ._ _ _  .  F V   u 3 d w   & w F F     F     F   F F   ",
"F F     F F     F   F l     F   F F     F   F F F     F   ' ' _ _ _ _ ' _ _ ....F     F     F   F F     F F F @     6 3   F F F ",
"  F   F F F F         9 X >     F F F         F F F     ' ' _ _ _ _ _ _ ' ..  F F F             F F F d   F F 1   O F F V   d F ",
"              F F   F F * V F     F F   F F F   F F F ' _ _ _ _ _ J J _ _ { F   F F F   F F F     F F u V   O   F     F F   V F ",
"F D   F F   F F F   k 1   F F F     F     F F I   F F _ _ _ _ J J ' ' _ _ { F F   F F     F F F     F 7 F Z F   F F     F   F V ",
"F k   F F   F F   . k 1     F F F           F I   ...._ J J J ' ' _ _ _ _ { F F             F F F         F F F F F F       F   ",
"F   u c O X S   l 7 u $ &         F F   F F   G I _ _ _ _ _ _ _ _ _ Q _ _ T       F F F           F F       F F   F F   F       ",
"            F F   F F   & F F   F F F   F F F G I I _ _ .._ ( [ Q _ T T T o.F   F F F     F F   F F F l F     F     F   F F     ",
"D   F F   F F F   l 3 Z F F F   F F   W W W W I I I _ ..F ^ Q ! T T ^ ^ ^ o.F   F F     F F F   F F   V F F   .     = = F F F   ",
"a   F F   F F o   1 r F i F     F     W K K K G G I ~ W Y ^ T T ^ ^ ^ ` ` o.o.  F     F F F     F   F @ F F F   & # F M v w x   ",
"Z o 9 O   M > F & o l F i   F         I K K W   F ~ W W Y ^ ^ ^ ^ ^ / W ` ` `               F     F F F   a $   F     F F   F > ",
"F     F F     F   F l X .   F F   I I I G K W W   ~ W Y Y / ^ ^ / / / W W ` ` `   F F F     F F   F F d 6 V F   F F     F   F v ",
"F   F F F F         9   d   F F F G G G F K K W ~ W W Y   / / / / / / I I W ` ` `   F F F   F F F F   q   F F F F F F       F   ",
"            F F   F F   Z O   F F   F F     K W K K Y F   / / I / / I I H X.W W ` U ` ` F     F F   F 5 o   F F   F F   F       ",
"F   F F   F F F   k : v F F       F F F   F F K W W Y     I I I I I I H H | X.X.W U ` `     F   F   F F F     F     F   F F     ",
"c   F F   F F     w u F + F F   F F F   F F F   Y Y F F     I I I I ^ H H X.X.  F U U U ` F F       F M F F             F F F   ",
"l O p .   S O F 3 $ l F   x F           F F         F F F     H ^ ^ ^ H H F       F W ` ` ` F   F       F F F   F F F     F F   ",
"F     F F     F   F l   .   F   F F     F   F F F     F F } } 2 m ^ ^ 2 H   F F F   W W ` ` W ` F F   c   F F     F F F >   3   ",
"F   F F F F         9   u -     F F F         F F F   } } } } } 2 m m m 2 ] ] } F F   W W W W W ` ` F l             V 7 &   F   ",
"            F F   F F $   F F     F F   F F F   } } } } ] ] ] n ] m m ] ] ] } } } F F   F W W W W ` W     F F F     d S F   F F ",
"k   F F   F F F   k : , F F F F     F     F F } } ] ] ] n n n L L / R / n ] ] } } } F F   F ` ` W ` W ` F F d   o 4 . F F F F F ",
"F   V F   F F   O y 3 w F   F F F           } ] ] n n n L L L I / / R / R n ] ] } } }     ` F F F W W ` ) *   F         F F   F ",
"F Z :   O M   F F & . l F         F F   F } ] n n L L I I I I I / / R R / R n ] ] } }             W ` W F F   F F F F     F     ",
"F F     F F     F   F l   a F   F F F   } ] n L I I I I I I I L L L / R / R R n ] ] } }   F F   F F a   F F F F > F F F         ",
"  F   F F F F         9 = F F   F F     } ] L I I I I I I L L L L F   R R / R n ] } } } } F F   F v       F F   F   F F F   F F ",
"+             F F   F Z r A     F       n I I I I I I L L L L   F     F R R / R n ] } } } F     F 6 A F     F   v F   F F     F ",
"0 Z   F F   F F F   k r F   F         I I n I I L L L L L L F         F F R R / R ] ] } } } F     w F F F       d F             ",
"@ 0 $ A F   F F     p F     F F     I I I I n n L L L F   F F   F     F F F R R / n ] ] } } F F   F   F F F   F u +   F F d   9 ",
"F   o r     F > r = l F     F F F   I I I n L   F F F   F F F   F F     F F F R R / n ] ] } } F F F F   F F     6 l F F +     F ",
"F     F F     F   F l O & o   F F n n n n L             F F     F F F           R / R n ] ] } F F w F         F     $     F     ",
"F   F F F F         9 > e r     I I I L L F F   F F F             F F     F F   F R n R R   F   F   @ : F F   F k v F F   F F   ",
"            F F   F Z : O @ F   I I L L L F F     F F F     F F         F F F   F F n R R n F     $ : ; F F F F 1   F F F F F F ",
"D   F F   F F F   s O F F   F I I I L L L F         F F   F F F         F F       F R n n E /   F         F F   +     F F   F F ",
"D   D F   F F o & 1 @ F r F F I I L L L F   F F F       F F F   F F     F   F F F     E E E / / / F c F     F r F F     F     F ",
"Z l 7   $ M   F F F     9 F I I I L L         F F F             F F F         F F F       R R / / / / F F       F F F           ",
"F F F     :     F F     l F I I L L F   F F F   F F F   F F F     F F   F F F   F F F   F F R R / / / F F F   F   F F F   F F F ",
"  F F     F F     F   F l   I L L   F     F l u   F F F   F F F     F     F F F   F F F   F F R R R / / F F   r F   F F     F F ",
"    F   F F F F         9 I I n 7   v l i   $ F     F D   9 F F X $     9 7 F F             F F l R n n n     9 A             F ",
"F               F F   F A n n   F o   F F $ d F F     F   Z w Z 7 : O   F F Z     F F     . 9     X R R / / s 6     F F F       ",
"F F z   F F   F F F   g I I P   F F     F   F F v F       F O w O   F     F F   A j : v d x o   F     R / / / 9 + F F F     F F ",
"F F =   F F   F F     I I P P   F & F       F   F F   F       F F   F F     F   F F   . F F & u F F   R R / / F   F F     F F F ",
"        ; 9 : F   9 I I P P P     X F   F       Z F c & F u : F r F F F F       F   F ;   F   F F Z F   R / / / F F s 1 S F F   ",
"F F F           F I I P P P P F     F   F F & 6 + F F F   F v u 4 F   F F   F       F F       F   F F   R R R R F r F M   y   u ",
"F F     F F   F F F   3 s . F F F       F h , F     F D   9 F S < Z     F   F F     F 3   F       v F   F F     F     F   F F   ",
"F     F F F   F F O     F     F F   + = ; , d F F     F   Z w Z 7 $         F F F     $   F F     F     F F F             F F F ",
"9 $ D F F     A & F F   @ x     F   F S r   F F v F       F O w O   F F F     F F     M   F F F     6     F F     F F F     F F ",
"A k 7   $ F 1   ; F F   + F F       & v &   F   F F   F       F F   r F F F     F   F F     F F     F F     F   F d F F F     F ",
"  F F     F F F     F   v =   F F   a . M       V F   F F     F r F s   F F F       X 9 F     F   F F F F             F F F     ",
"            F F F       =   F F F @ F   F F     F     F F F     9 F           F F   M F F F               F F   F :         F F ",
"  F F F           F F . F . F F @ u S   F F F     :     F F     l F   F F   F F F   r X     F F   F F   F F F O r . F F   F F F "
};
