/* XPM */
static char *result[] = {
/* columns rows colors chars-per-pixel */
"64 64 92 1 ",
"  c #152734",
". c #152834",
"X c #152835",
"o c #162835",
"O c #162935",
"+ c #162A35",
"@ c #162A36",
"# c #172A36",
"$ c #172B36",
"% c #172C36",
"& c #172C37",
"* c #172D37",
"= c #182D37",
"- c #182E37",
"; c #182D38",
": c #182E38",
"> c #182F38",
", c #192F38",
"< c #182F39",
"1 c #192F39",
"2 c #1E2F3B",
"3 c #193039",
"4 c #193139",
"5 c #1A3139",
"6 c #19313A",
"7 c #1A313A",
"8 c #19323A",
"9 c #1A323A",
"0 c #1A333A",
"q c #1A323B",
"w c #1A333B",
"e c #1B333B",
"r c #1B343B",
"t c #1B353B",
"y c #1B343C",
"u c #1B353C",
"i c #1B363C",
"p c #1C353C",
"a c #1C363C",
"s c #1C363D",
"d c #1C373D",
"f c #1D373D",
"g c #1D373E",
"h c #1C383D",
"j c #1C383E",
"k c #1D383E",
"l c #1D393E",
"z c #1D3A3E",
"x c #1D3A3F",
"c c #1E3A3F",
"v c #1E3B3F",
"b c #333C3F",
"n c #713030",
"m c #1E3C40",
"M c #1F3C40",
"N c #1E3D40",
"B c #1F3D40",
"V c #1F3D41",
"C c #1F3E41",
"Z c #1F3F41",
"A c #203F41",
"S c #203F42",
"D c #204042",
"F c #3C494D",
"G c #2E4453",
"H c #4B4747",
"J c #4B4B4B",
"K c #414E53",
"L c #445358",
"P c #4C5A5F",
"I c #515151",
"U c #5C5959",
"Y c #5D5D5D",
"T c #56666C",
"R c #586A71",
"E c gray40",
"W c #6E6B6B",
"Q c gray46",
"! c #7C7C7C",
"~ c #883636",
"^ c #667980",
"/ c #838282",
"( c #888888",
") c gray61",
"_ c #9E9D9D",
"` c #929CA0",
"' c #A0A0A0",
"] c gray64",
"[ c #A4AEB2",
"{ c gray71",
"} c gray76",
"| c gray79",
/* pixels */
" DD  D $  SxlDD DDD.sB@DDD rmDD.su@SD  D3z9 SD  D:<C D  DDd3D  D",
" D  DD DNDm<DD9 SD  D% SD  D&9X D= D  DDd=C D  DDd$D   DvDDOw DD",
"   DDDDDD&07CwC D  DDd$D. DDd$9DDd$3 DvDD D   DvDD u D DD D  DvD",
" D DD DD 3 OwOD   DvDD d DvDD DdDD D DD D   D DD D  CD DB   vDD ",
"DD D  D  D DD   D DD D $ DD D Ok D & DB   vDD DB   DzD  D  DmDB ",
"DD      DDDrD  DD DB   D DB   De   D  D  DDDD  D  DDl  :  DDz D ",
"D  DDD DD>D9  DDD  D  DD  D  DSr  DC :  DDDD  :  DDD  DD  DD :  ",
"  DDD  DD Dl  DD  :  DDN :  DDA  DDmlD  DD:  DD  DD .DDDD D aD  ",
" DDD&      l||D  DD  DD CD  DDOO DD&CDD D   DDDD D 7D      >DDD ",
"C sxB &:D9@9 |||DDDD D 9DDD D 3D D  o     DD       DDD DD.D&    ",
"D+SD  D o:>DD D|||    $:      3   &D DD Z:DDD DD S4 DD Dm3DD DD ",
"D D  DD DDC9k DD|||| DDD DD D9DD vDD DD=MO DD DD&9yy D:$1.DD DA ",
"D   DDDDDD @9@ DD ||||DD DC=DODDOl;DOo1mD:D&V$ mo DB&&kODD:m$:7d",
"  D DD DD  $>9S v&6B|(|| 6M,v& :.DDDDDD v&6B.D   D7Dtaf. DD DD D",
" DD D  D  DDw& wd3u B||(|||D  ___DD DD    DD   D D7DlO8DD S  9lD",
"DDD 36  @DDD  DD D  D  }(((}}_(___  D  DDD D  DD D  lD D  DD  DD",
"Dd BDDO 1DD dDDD      DD||((_((((__   DDD    DDD  >X9    DDDD D ",
"DB DD  D O BuDD  DDD DDD D|_((((((__ DDD DDD DD  DB*DD DD       ",
"BD D  DD DCD7D  DDD  DD DD]((HH(((((_DD DDD  D  DDD 1k DDD DD SD",
" D   DDDDDD    DDD      DD]((__HH((((   PD     DDD  1k. DD DD kD",
"   D DD DD   DD     DDD   ]((((__HHH(|| P DD DD    &$u7l AXOcu D",
"  DD D  D  DlDDD DD  DDD DY((W(((((((((PFDDD DDD DD& DD DD      ",
" DDD==  . DDB DD DDD  DD DDYYY(W'/(|((PPFDD   DD DDDC3l DDD DD S",
" xwvmD#& DDD@D D  DDD  D D ~~~YYQW~{|(PPPEEEE  D  DiDr1 oDD DD a",
">D DD  D $a DDD  D        D))~~~YY~UE!PFFJJJE    D iDlo&D>m O9oC",
"vD D  DD DB6dDD DD  DDD  )))E^~~~~~UEE!  EJJP   DD .XlD D  DD  D",
" D   DDDDDD q DDDD DDD  )))EE^^^~~^UUE! EEJFPPPDDD d 9    DDDD D",
"   D DD DD o5D DD  DD  )))EPP^^^^^^{UEE!EJJ FFFDD OC DD DD      ",
"  DD D  D  DDD D D  ))I)EE GPP^^P^^{{UJJEJD DDD   DDv:k DDD DD D",
" DDD      DDmD   DD ))IE  DGGPPPPPP{{UEEJDDD DDD DD+Duw  DD DD c",
" DD  DDD DDD   D DD)III   DGG~PPPP{{DDUU  DD     Dx Dl$3DOA .pOl",
" 3 >DDD  DD c DD  )))E DDD GG~~~G  DD  DDD D  DD D . lD D  DD  D",
" D &7B      lDDD)E))EEDDD  G2~~n2[[D  DDD    DDD  -u 9    DDDD D",
"DD DAd  DDD  D))EEEEEDDD[``2nnn2[[[[[[[[ DDD DD  DD $DD DD      ",
"DDDDD.4o dDD E)EEEE DDD[[[```nn`b``````[[[D  D  DDDD,:k DDD DD k",
"D DD    D *$)E)E))    [[[``bTT^KKbbbbbb``[[    DDD Dw3yO DD DB D",
"  D  DDDD DDE)EE))   D[[```bTT^^PKKKKKKbb`[[ DD    Dl.&DD mO :CD",
"    DDD>DDDD )EE)DD  [[```bTTT^^PPPPPPPPPbb`[DDD Da lD D  DD  DD",
"DD DDD D DD   vD DDD [[```bTT^DKKKPPPPPPPPKb[ DD DD=9    DDDD D ",
"D  DD Dv D  DZ6D  DD[[```bTTT  DKKKKKPPPPPPPb  D  ZrCD DD      +",
"      Dd   DDDw  D  [[[``bTTT    DKKKKKKKPPbPPP  D Drk DDD DD C0",
"9 dDD +uD DDD D DD  [[``bTTTD  D DD DDKKKbbPPPPPDD  Dp  DD DZ$0@",
"D  +DDl6  DD DDDDD [[```bTTD  DD DDD DDD DbbbbbbDD  Dl=r>D  ro D",
"  D  $  D    DwDD  [[``bTT   DDD  DD       KKKPPP o&OlD D  DD  D",
" DD DDvkD DD:@ D D[[``bTTDD  DD      DDD DD KKKPP re>9    DDDD D",
"DDDDDD 1DDDD;:$  D[``bTT DDD    DD  DDD  DDDKKKPPD@O:CD DD      ",
"DD DD  + DD    D^^bTTbT   DD    DDD DD    DD KKPPD DDOs DDD DD S",
"D  D  DDrD  DcD^^^Rbbb DDD D  DD DDD   DDD D KKPPDDrD@1&oDD DS S",
"     DDD   DDD^^^^RRR DDD    DDD      DDD    DKKPPD9  DDD m$ 7lC",
"DDD DDD D DDD^^TTTDD DDD DDD DD  DDD DDD DDD DDKKPDl  DD  :  DDD",
"DD  DD Dr DD^TTTTDD DDD DDD  D  DDD DDD ulD  D  KP lD D  DD  DD ",
"D      Z9   bbblDD      DD79  $XDD9 SD  D$ ilv 7KPP9    DDDD D  ",
"   DDD  6s1^TTT  9.  DD  CDD O:7CwC D  DDd$DD oD bbZD DD       D",
"DD  DDD+9B^^TT D oxdv:jZ DD  D OwOD   DvDD D  DD LPPg DDD DD zDD",
"DDD  DD D^^TT DDu&DD. DD D  DD DD   D DD D   D&D LLPP  DD DD =DD",
" DDA1sDD^^^T DCDD D ;D D   DDDDrD:uD&cDC   D DX  LLLPP9 D:9;    ",
"u y mDrDTTTT DD D   DD   D DD D4uvD DDD+6&DD D  DLLLLPPD     DDD",
" DD D  D  DD Dv   D 3D  DD D  C<AD9 SD  D,hD   DDD.s3 DDD DD  DD",
"DDD      DDD  D  DD $  DDD    $7CwC D  DDd,;=+ DD  D  ODD DDD  D",
"DD  DDD  DD  6  DDD m  DD  DDD OwOD   DvDD rAD D  x@ DD&Z  DDS$9",
"D  DDDdD D  DD  DD  DD D  DDDr DD   D DD D &v&   DD+ DD; 1D$ 7kZ",
"  DDD      DDDD D  D9X   DDD sDrD  DD DB   m.a DD =v D  DDD  DD ",
"DD    :D DD       DDDm DD     D9  DDD  D  DD D@DDD =   DDD      ",
"DDD DD.rODDD DD DD  Xr DDD DD Dl  DD  :  DDD Au@DD.D.DD     DDD "
};
