/* XPM */
static char *result[] = {
/* columns rows colors chars-per-pixel */
"64 64 94 2 ",
"   c #152734",
".  c #152834",
"X  c #152835",
"o  c #162835",
"O  c #162935",
"+  c #162A35",
"@  c #162A36",
"#  c #172A36",
"$  c #172B36",
"%  c #172C36",
"&  c #172C37",
"*  c #172D37",
"=  c #182D37",
"-  c #182E37",
";  c #182D38",
":  c #182E38",
">  c #182F38",
",  c #192F38",
"<  c #182F39",
"1  c #192F39",
"2  c #1E2F3B",
"3  c #193039",
"4  c #193139",
"5  c #1A3139",
"6  c #19313A",
"7  c #1A313A",
"8  c #19323A",
"9  c #1A323A",
"0  c #1A333A",
"q  c #1A323B",
"w  c #1A333B",
"e  c #1B333B",
"r  c #1B343B",
"t  c #1B353B",
"y  c #1B343C",
"u  c #1B353C",
"i  c #1B363C",
"p  c #1C353C",
"a  c #1C363C",
"s  c #1C363D",
"d  c #1C373D",
"f  c #1D373D",
"g  c #1D373E",
"h  c #1C383D",
"j  c #1C383E",
"k  c #1D383E",
"l  c #1D393E",
"z  c #1D3A3E",
"x  c #1D3A3F",
"c  c #1E3A3F",
"v  c #1E3B3F",
"b  c #333C3F",
"n  c #713030",
"m  c #1E3C40",
"M  c #1F3C40",
"N  c #1E3D40",
"B  c #1F3D40",
"V  c #1F3D41",
"C  c #1F3E41",
"Z  c #1F3F41",
"A  c #203F41",
"S  c #203F42",
"D  c #204042",
"F  c #3C494D",
"G  c #2E4453",
"H  c #4B4747",
"J  c #4B4B4B",
"K  c #414E53",
"L  c #445358",
"P  c #4C5A5F",
"I  c #515151",
"U  c #5C5959",
"Y  c #5D5D5D",
"T  c #56666C",
"R  c #586A71",
"E  c gray40",
"W  c #6E6B6B",
"Q  c gray46",
"!  c #7C7C7C",
"~  c #883636",
"^  c #667980",
"/  c #838282",
"(  c #888888",
")  c gray61",
"_  c #9E9D9D",
"`  c #929CA0",
"'  c #A0A0A0",
"]  c gray64",
"[  c #A4AEB2",
"{  c gray71",
"}  c gray76",
"|  c gray79",
" . c #E2E2E2",
".. c #F6F4F4",
/* pixels */
"  D D     D   $     S x l D D   D D D . s B @ D D D   r m D D . s u @ S D     D 3 z 9   S D     D : < C   D     D D d 3 D     D ",
"  D     D D   D N D m < D D 9   S D     D %   S D     D & 9 X   D =   D     D D d = C   D     D D d $ D       D v D D O w   D D ",
"      D D D D D D & 0 7 C w C   D     D D d $ D .   D D d $ 9 D D d $ 3   D v D D   D       D v D D   u   D   D D   D     D v D ",
"  D   D D   D D   3   O w O D       D v D D   d   D v D D   D d D D   D   D D   D       D   D D   D     C D   D B       v D D   ",
"D D   D     D     D   D D       D   D D   D   $   D D   D   O k   D   &   D B       v D D   D B       D z D     D     D m D B   ",
"D D             D D D r D     D D   D B       D   D B       D e       D     D     D D D D     D     D D l     :     D D z   D   ",
"D     D D D   D D > D 9     D D D     D     D D     D     D S r     D C   :     D D D D     :     D D D     D D     D D   :     ",
"    D D D     D D   D l | | D D     :     D D N   :     D D A     D D m l D     D D :     D D     D D   . D D D D   D   a D     ",
"  D D D &             l D | | |   D D     D D   C D     D D O O   D D & C D D   D       D D D D   D   7 D             > D D D   ",
"C   s x B   & : D 9 @ 9       | | | D D   D   9 D D D   D   3 D   D     o           D D               D D D   D D . D &         ",
"D + S D     D   o : > D D   D D | | | |     $ :             3       & D   D D   Z : D D D   D D   S 4   D D   D m 3 D D   D D   ",
"D   D     D D   D D C 9 k   D D D   | | | | D D   D D   D 9 D D   v D D   D D = M O   D D   D D & 9 y y   D : $ 1 . D D   D A   ",
"D       D D D D D D   @ 9 @   D D   D C | ( | |   D C = D O D D O l ; D O o 1 m D : D & V $   m o   D B & & k O D D : m $ : 7 d ",
"    D   D D   D D     $ > 9 S   v & 6 B 0 | | ( | | | , v & _ _ _ D D D D D D   v & 6 B . D       D 7 D t a f .   D D   D D   D ",
"  D D   D     D     D D w &   w d 3 u   B D   } ( ( ( } } _ ( _ _ _ D   D D         D D       D   D 7 D l O 8 D D   S     9 l D ",
"D D D   3 6     @ D D D     D D   D     D     D | | ( ( _ ( ( ( ( _ _   D     D D D   D     D D   D     l D   D     D D     D D ",
"D d   B D D O   1 D D   d D D D             D D D   | _ ( ( ( ( ( ( _ _     D D D         D D D     > X 9         D D D D   D   ",
"D B   D D     D   O   B u D D     D D D   D D D   D ] ( ( H H ( ( ( ( ( _ D D D   D D D   D D     D B * D D   D D               ",
"B D   D     D D   D C D 7 D     D D D     D D   D D ] ( ( _ _ H H ( ( ( ( D D   P D D     D     D D D   1 k   D D D   D D   S D ",
"  D       D D D D D D         D D D             D D ] ( ( ( ( _ _ H H H ( | |   P D           D D D     1 k .   D D   D D   k D ",
"      D   D D   D D       D D           D D D       Y ( ( W ( ( ( ( ( ( ( ( ( P F   D D   D D         & $ u 7 l   A X O c u   D ",
"    D D   D     D     D l D D D   D D     D D D   D D Y Y Y ( W ' / ( | ( ( P P F D D D   D D D   D D &   D D   D D             ",
"  D D D = =     .   D D B   D D   D D D     D D   D D ~ ~ ~ Y Y Q W ~ D | ( P P P E E E E   D D   D D D C 3 l   D D D   D D   S ",
"  x w v m D # &   D D D @ D   D     D D D     D   D   ) ) ~ ~ ~ Y Y ~ U E ! P F F J J J E     D     D i D r 1   o D D   D D   a ",
"> D   D D     D   $ a   D D D     D               ) ) ) E ^ ~ ~ ~ ~ ~ U E E ! D   E J J P         D   i D l o & D > m   O 9 o C ",
"v D   D     D D   D B 6 d D D   D D     D D D   ) ) ) E E ^ ^ ^ ~ ~ ^ U U E !   E E J F P P P   D D   . X l D   D     D D     D ",
"  D       D D D D D D   q   D D D D   D D D   ) ) ) E P P ^ ^ ^ ^ ^ ^  .U E E ! E J J D F F F D D D   d   9         D D D D   D ",
"      D   D D   D D   o 5 D   D D     D ) ) I ) E E   G P P ^ ^ P ^ ^ { ..U J J E J     D D   D D   O C   D D   D D             ",
"    D D   D     D     D D D   D   D     ) ) I E D     G G P P P P P P {  .U E E J D D   D D D       D D v : k   D D D   D D   D ",
"  D D D             D D m D       D D ) I I I D     D G G ~ P P P P { { { { U U   D D D   D D D   D D + D u w     D D   D D   c ",
"  D D     D D D   D D D       D   D ) ) ) E D       D G G ~ ~ ~ G { { { { D         D D           D x   D l $ 3 D O A   . p O l ",
"  3   > D D D     D D   c   D D ) E ) ) E E   D D D   G 2 ~ ~ n 2 [ [ D D     D D D   D     D D   D   .   l D   D     D D     D ",
"  D   & 7 B             l D D ) E E E E E   D D [ ` ` 2 n n n 2 [ [ [ [ [   D D D         D D D     - u   9         D D D D   D ",
"D D   D A d     D D D     D ) ) E E E D   D D [ [ [ ` ` ` n n ` b ` ` ` [ [ [ [   D D D   D D     D D   $ D D   D D             ",
"D D D D D . 4 o   d D D   E ) ) ) D D   D D [ [ [ ` ` b ^ T ^ K K b b b ` ` ` [ [ D D     D     D D D D , : k   D D D   D D   k ",
"D   D D         D   * $   E E ) E D       [ [ [ ` ` b T ^ T ^ ^ P K K K b b b ` ` [           D D D   D w 3 y O   D D   D B   D ",
"    D     D D D D   D D 9 A E E )         [ [ ` ` b T ^ T T ^ ^ P P P P P K K b b ` [ D   D D         D l . & D D   m O   : C D ",
"        D D D > D D D D   a D D   D D   [ [ ` ` b T T ^ T ^ K K K P P P P P P P K b ` [   D D D   D a   l D   D     D D     D D ",
"D D   D D D   D   D D       v D   D D [ [ [ [ ` b T ^ T T   D K K K K P P P P P P K ` [     D D   D D = 9         D D D D   D   ",
"D     D D   D v   D     D Z 6 D     D [ [ [ ` b T ^ T T D     D   K K K K P P P P P P b       D     Z r C D   D D             + ",
"            D d       D D D w     D [ [ [ ` ` T ^ T T D D         D K K K K K K P P b P P         D   D r k   D D D   D D   C 0 ",
"9   d D D   + u D   D D D   D   D D [ [ ` ` b ^ T T D D D     D   D D   D K K K b b P P P P     D D     D p     D D   D Z $ 0 @ ",
"D     + D D l 6     D D   D D D D [ [ ` ` b ^ T T D D D     D D   D D D   D D D   K b P P P   D D D     D l = r > D     r o   D ",
"    D     $     D         D w D D [ ` ` b T ^ T           D D D     D D             K b b b b D D   o & O l D   D     D D     D ",
"  D D   D D v k D   D D : @   D   D   T T b T D   D D     D D             D D D   D D K K P P P     r e > 9         D D D D   D ",
"D D D D D D   1 D D D D ; : $     D b T T b D D   D D D         D D     D D D     D D K K K P P   D @ O : C D   D D             ",
"D D   D D     +   D D         D   ^ R b b T D       D D         D D D   D D         D K K K P P P D   D D O s   D D D   D D   S ",
"D     D     D D r D     D c D ^ ^ ^ R R R     D D D   D     D D   D D D       D D D   D K K K P P D D r D @ 1 & o D D   D S   S ",
"          D D D       D D ^ ^ ^ ^ T T       D D D         D D D             D D D         K K P P P D 9     D D D   m $   7 l C ",
"D D D   D D D   D   D D D ^ ^ ^ T T D D   D D D   D D D   D D     D D D   D D D   D D D   D K K P P D l     D D     :     D D D ",
"D D     D D   D r   D D ^ ^ T T T D D   D D D   D D D     D     D D D   D D D   u l D     D   K K P   l D   D     D D     D D   ",
"D             Z 9     b b b T l D D             D D 7 9     $ X D D 9   S D     D $   i l v   7 b P P 9         D D D D   D     ",
"      D D D     6 s ^ ^ T T X     9 .     D D     C D D   O : 7 C w C   D     D D d $ D D   o D   b b Z D   D D               D ",
"D D     D D D + 9 ^ ^ ^ T     D   o x d v : j Z   D D     D   O w O D       D v D D   D     D D   L P P g   D D D   D D   z D D ",
"D D D     D D   D ^ ^ T T   D D u & D D .   D D   D     D D   D D       D   D D   D       D & D   L L P P     D D   D D   = D D ",
"  D D A 1 s D D ^ ^ ^ T   D C D D   D   ; D   D       D D D D r D : u D & c D C       D   D X     L L L P P 9   D : 9 ;         ",
"u   y   m D r D T T T T   D D   D       D D       D   D D   D 4 u v D   D D D + 6 & D D   D     D L L L L P P D           D D D ",
"  D D   D     D     D D   D v       D   3 D     D D   D     C < A D 9   S D     D , h D       D D D . s 3   D D D   D D     D D ",
"D D D             D D D     D     D D   $     D D D         $ 7 C w C   D     D D d , ; = +   D D     D     O D D   D D D     D ",
"D D     D D D     D D     6     D D D   m     D D     D D D   O w O D       D v D D   r A D   D     x @   D D & Z     D D S $ 9 ",
"D     D D D d D   D     D D     D D     D D   D     D D D r   D D       D   D D   D   & v &       D D +   D D ;   1 D $   7 k Z ",
"    D D D             D D D D   D     D 9 X       D D D   s D r D     D D   D B       m . a   D D   = v   D     D D D     D D   ",
"D D         : D   D D               D D D m   D D           D 9     D D D     D     D D   D @ D D D   =       D D D             ",
"D D D   D D . r O D D D   D D   D D     X r   D D D   D D   D l     D D     :     D D D   A u @ D D . D . D D           D D D   "
};
