/* XPM */
static char *result[] = {
/* columns rows colors chars-per-pixel */
"64 64 149 2 ",
"   c #152734",
".  c #162A35",
"X  c #182D37",
"o  c #182E38",
"O  c #1B333B",
"+  c #1D3A3E",
"@  c #1F3D40",
"#  c #203F42",
"$  c #283C45",
"%  c #204042",
"&  c #2D474A",
"*  c #4C524B",
"=  c #48565A",
"-  c #455B5C",
";  c #50595A",
":  c #4A6262",
">  c #586C68",
",  c #627873",
"<  c #6B7F79",
"1  c #747E7C",
"2  c #8F4D00",
"3  c #924E02",
"4  c #934E0C",
"5  c #935102",
"6  c #985707",
"7  c #945804",
"8  c #9A5B04",
"9  c #935309",
"0  c #9B5C08",
"q  c #A46603",
"w  c #A46E06",
"e  c #A36509",
"r  c #AA6B0B",
"t  c #AE7205",
"y  c #B07609",
"u  c #806F3F",
"i  c #817744",
"p  c #83724B",
"a  c #857F4B",
"s  c #857C5B",
"d  c #C48D07",
"f  c #C1870C",
"g  c #C38C0A",
"h  c #C5910D",
"j  c #C99109",
"k  c #DE9F02",
"l  c #DB9A0B",
"z  c #C58E15",
"x  c #C89112",
"c  c #CD9914",
"v  c #E59D04",
"b  c #EE9C01",
"n  c #E59E0C",
"m  c #EA9B09",
"M  c #F49702",
"N  c #FA9504",
"B  c #F29B02",
"V  c #F99A03",
"C  c #F49D0A",
"Z  c #F99B09",
"A  c #DDA10F",
"S  c #D8AC0C",
"D  c #DBB20E",
"F  c #D7A119",
"G  c #E3A103",
"H  c #EDA303",
"J  c #E3A903",
"K  c #EBAB05",
"L  c #E4A30B",
"P  c #E8A40B",
"I  c #E5AD0C",
"U  c #EBAD08",
"Y  c #F2A304",
"T  c #FAA107",
"R  c #F3AA06",
"E  c #F4A509",
"W  c #F8A60A",
"Q  c #F6AD0A",
"!  c #F9AD0B",
"~  c #EEB20A",
"^  c #F5B30A",
"/  c #F9B40D",
"(  c #F5BA0E",
")  c #F9BB0D",
"_  c #E5A314",
"`  c #E9A013",
"'  c #E3A41D",
"]  c #E7A81D",
"[  c #E9AD1D",
"{  c #EDB617",
"}  c #EFBC11",
"|  c #EBBD1B",
" . c #F7B710",
".. c #F9B511",
"X. c #F4BB12",
"o. c #FABB11",
"O. c #E5AA22",
"+. c #E3A72D",
"@. c #E2B232",
"#. c #E8B93D",
"$. c #F5C30D",
"%. c #FAC30E",
"&. c #FACA0E",
"*. c #FCD40E",
"=. c #EFC512",
"-. c #EFC01B",
";. c #F4C211",
":. c #FBC412",
">. c #F7CD12",
",. c #FCCC14",
"<. c #FEC718",
"1. c #F6C91D",
"2. c #FECD1A",
"3. c #F6D716",
"4. c #FED215",
"5. c #FCD813",
"6. c #FED319",
"7. c #F8D021",
"8. c #86804C",
"9. c #898350",
"0. c #87825D",
"q. c #8A835E",
"w. c #86895F",
"e. c #9C8A5E",
"r. c #B19748",
"t. c #8A8760",
"y. c #8A877C",
"u. c #848A7B",
"i. c #899073",
"p. c #8E937D",
"a. c #989573",
"s. c #C9AB56",
"d. c #E6B344",
"f. c #EBB446",
"g. c #EBB548",
"h. c #EFB94F",
"j. c #F0BF43",
"k. c #EBB555",
"l. c #EDBD5B",
"z. c #C6BA7F",
"x. c #D1B77B",
"c. c #EFBF65",
"v. c #F2C05E",
"b. c #EEC161",
"n. c #F1C96C",
"m. c #8A8B83",
"M. c #8B9482",
"N. c #8A978C",
"B. c #BDB594",
/* pixels */
"  % %     %   . .   @ @ + % %   % % %   + + X % % %   O + % %   + O X % %     % o + O   @ #     % o o @   %     % % + o %     % ",
"  %     % %   % @ # + X @ % O   % %     % X   % %     % X O     % X   %     % % + o @   %     @ % + o @       % @ % @ . O   % % ",
"      % % % % % @ X O O @ O @   %     % % + X %     % % + X X # % O X o   % + % %   %       % @ % %   O . % . % @   %     % @ @ ",
"  %   % %   % % . o   . O . %       % + % %   O   % + % %   % + % %   %   % %   %       %   % %   %     @ @   @ @       @ % %   ",
"% %   %     %     %   % %       %   % %   %   X   % %   %   . +   %   X   % + .     @ % %   % @       % @ @     @   . % @ @ @   ",
"% %             % % % O %     % %   % +       %   % +       % O       %     %     % @ % %     %     % % +     o . . @ % +   %   ",
"%     % % %   % % o % O     % % %     %     % %     %     % % O     % %   o     % % % %     o     % % %     % %     % %   o     ",
"    % % %     % @ . @ +     % %     X     % % +   o     % % %     % % + + %     % % o     % %     % %     % % % @   @ . O %     ",
"  % % @ .             + @   %     % %     % #   # #     % % . .   % % X # % %   %       % % % % . @   O %       .     o % % %   ",
"@ . O @ @   o o % O . O         % % % %   %   O % # #   %   o %   %                 % %               @ % %   % %   % o         ",
"% . @ %     %   . o o % %   % %             o o     . _ ` n n ` n ` n L A z.%   # o % % %   % %   @ O   % %   % @ O @ @ . % %   ",
"%   %     % %   @ % @ O +   % % %   % %   % # 9.p 8.8.I K U U U U U U U K s.8.i a *   % %   % @ . O O O   % X . o   % %   % @   ",
"%       % % % % % %   . O .   @ %   % @   X % b v v v 6.4.6.6.6.6.6.4.6.4.K v v A u % o @ .   @ .   % @ X X + . % % o @ . o O O ",
"    %   % %   % %     . o O @   + $ < + v.G G *.,.4.4.4.4.4.4.4.6.4.4.4.4.4.4.4.6.K G n   #       % O % O O +     % #   % %   % ",
"  % %   %     %     % % O . . O o p._ ' } 4.4.4.6.4.4.Y H B Y b b Y B H b :.4.4.5.4.>.>._ _ +.@   % o % + . O % %   %     O + % ",
"% % %   o O     . % % %   . % @ B.B.K K ;.4.4.:.:.%.%.B B B B B B B B B b / :.%.;.2.4.4.K K J t.  %     + @   %     % @     % % ",
"% @   @ % % .   o % %   + # % % h.b *.4.4.6.4.B B B B B B B B B B B B B B B B B B ;.4.4.4.4.*.n     o   O         % % % %   %   ",
"@ @   % %   . @   .   @ O % + k $.4.4.5.R B M B V B B B ( 4.4.4.5.4.4.4.B B B B M ) 6.B 4.4.*.4.v r.@ - % %   @ %               ",
"@ %   %   . @ %   % # % O p.] 4.4.4.4.C B B B B / ,.,.,.^ Y H H b Y Y Y ,.,.,.2.B Y Y B Y ) 4.4.2.{ +.= o +   % % %   % @   % % ",
"  @       % % % % % %     m.v 4.4.4.:.B b B B R ) %.,.%.^ B B B B B B B :.,.:.%.R M B Y B / %.4.4.~ v   o +     % %   % %   + % ",
"      %   % % . % %       N.v 4.4.4.B B B B B *./ B B B B B B B B B B B B b B V 4.^ B 4.b b M 4.4.} v X   O O +   %   . @ O   % ",
"    % %   @     %     % f.L 6.,.4.,.V B B b 4.b M B B 4.*.4.,.M *.4.4.*.B B b B B o.4.Z 5.^ M 4.4.,.3.O.  % %   % @             ",
"  % @ @ o o         % % f.v 4.4.^ R B V / <.Y B b B B 6.c 8 w &.8 8 q 5.B B C &.B Y H >.E ( &.T 4.6.4.O.% o +   % % % . % %   @ ",
"  @ O @ @ % . .   % % i.#.J 6.4.R B B K ) ,.b Y H H R 4.h 5 8 4.3 5 5 4.Y Y K >.B B Y <.H o.4.C 6.4.4.[ i.O o   . % @ . % % . O ",
"o @   % %     %   . O L $.5.6.6.Q B B *.! B B 4.4.6.4.6.h 5 8 4.3 5 6 5.6.6.2.Z B o.4.C 4.6.6.B 4.4.4.,.v #   X @ O @   . O   @ ",
"@ @   %     % %   % + v %.4.4.M M B M 4./ M B 4.f 2 3 9 5 3 3 2 3 3 3 9 2 S 3.4.b Z b B 4.^ b 5.5.4.4.>.v + %   @     % @     % ",
"  %       % % % % % % v :.4.,.B B H >.T X.:.C 4.f 9 5 5 3 3 3 3 3 3 3 3 2 e w *.:.R B B W ) %.4.E ) 4.>.b o         % % % %   % ",
"      %   % %   % % y.G :.4.4.B B B 4.B ) ,.b 4.j 8 3 3 7 8 6 8 7 8 8 8 3 3 7 =.4.Q B Y b ( 4.4.Y  .4.4.L M.>   % %             ",
"    % %   %     % m.L 7.4.4.4.B B B 4.B B B B 4.4.5.3 3 g 4.4.4.4.4.,.4.2 3 3 5 6./ B *.B ) 4.,.,.4.4.6.6.n q.  % % %   % %   % ",
"  % % %           u.v 5.4.,.V B B B 2.B %.4.4.b / 6.3 3 g 6.B B B B b 4.*.y 3 3 4.^ B 4.V ) 4.4.4.4.4.4.4.v 0.    % %   % %   @ ",
"  @ %     % % %   M.G 4.4.4.b b %.4.b M B B B b ( 4.5 3 d 4.4.4.4.4.,.*.3 3 3 5 6.! B M B B B 4.4.4.4.4.4.G s o % . #     +   + ",
"  O   o % % %     M.G 4.4.,.b B :.4.b 6.4.4.6.b ( 4.5 3 9 3 5 5 5 5 9 5 3 3 5 6.4.Q Y 4.6.5.2.4.6.4.4.4.4.v t.. @     # @     # ",
"  #   o O #       u.G 4.4.>.B b :.,.B :.:.) %.b ) 4.5 3 5 5 3 5 3 3 3 3 3 3 9 ,.) R B %.%.:.( 4.,.4.4.4.4.G s       % % % %   % ",
"% #   % # O     % M.P 4.4.5.b b :.>.B b M B B b ) 4.3 5 2 2 2 5 3 3 2 3 3 3 4 4.B B B M B M B 4.4.4.4.4.4.v t.  % %             ",
"% % % % #   O     p.v 4.6.4.b B :.,.B 4.4.,.,.B ) 6.5 2 g 4.4.4.4.4.4.6.2 5 5 5 4./ b 5.,.4.*.4.M ) 4.4.6.v q.. % % %   % #   + ",
"%   % %         % u.G 4.4.>.B B %.4.B b :.4.H b ) 4.3 9 g 6.V B B B H >.>.t 3 3 4.Q B B 4.^ H 4.,.4.4.4.4.b q..   % %   % #   # ",
"    %     % % % % p.v *.5.2.B B ..<.R M / :.b R :.5.5 9 g 6.R R R R Q 6.D r 2 3 6./ B R %./ R 4.4.4.4.4.4.n s % #   + .   o @ % ",
"        % % % o % M.m 4.4.2.N B M B 6.B b b B 6.6.6.5 5 g 5.6.4.6.6.5.4.3 3 5 4 4.Q V 4.b ) 4.4.6.4.4.,.4.v s %   . % %     % % ",
"% %   % % %   %   # % v %.4.4.B B b 4.B %.4.B *.g 3 3 3 3 5 5 5 5 2 5 3 3 3 7 4.4.Q B 4.M  .5.4.4.4.4.4.v         % % % %   %   ",
"%     % %   % +   #   v %.4.4.B B B Y ,.! Y V 4.f 5 3 5 5 3 3 5 3 5 3 3 3 F -.6.B B B Y ,./ Y 4.4.4.4.,.v #   % %             . ",
"    . .     @ O       v ;.6.4.R C B B 4.Q B B 6.c q q q 0 3 9 e 5 5 4 e q D ,.<.b Y E B 4.) U 4.,.4.6.,.v +   # % %   % %   @ O ",
"O   O % @ . X O %   % v ;.5.4.4.R B b 4.R B B 4.*.4.4.5.z 3 8 4.2 5 7 4.5.4.4.B M :.6.M 4.6.4.4.4.4.4.>.v +     % %   % @ X O . ",
"#     . % % + O     % % g.G 4.4.! V B b ) 4.B B B B B 4.x 9 8 6.2 2 8 ,.B B B B B B B 4.M X.4.4.4.4.5.] + + o O o %     O .   % ",
"    #   . .     %       g.G 4.6.,.:.B B Y R ,.B  .2.B *.1.;.X.m =.=.| 4.B B b ,.b / ,.Y <.6.4.4.4.4.4.O.  + %   %     % @     % ",
"  % %   @ % @ O %   % % c.@.>.5.4.4.B W b b &.Y X.<.C ,.,.>.:.Y 2.,.&.6.B W R >.Y / :.W 4.,.4.2.6.4.$.d.o O         % % % %   % ",
"% % % % % %   O % % % % o m.n 6.4.2.M 5./ B B 5./ B B M Z B Y 4.B b B >.M :.4.Z 4.^ B 4.4.4.4.4.4.^ v . o @ %   % %             ",
"% %   % %     .   % %     m.n 5.4.4.4.B B M >.M ) 4.,.6.^ B B B 6.4.6.4.6.6.4.6.4.4.4.4.4.4.4.4.4.X.v % % . +   % % %   % %   % ",
"%     %     % % O %   . % - w.P :.4.6.:.Q B R ,.6.6.Y 4.,.>.:.<.4.4.4.4.H R H R 4.4.4.4.4.4.4.4.L n.a.O @ . o . . % %   % #   # ",
"          % % %       % % # + F -.4.*.4.^ Y B ,.,.2.Y ,.,.4.4.4.6.,.:.2.Y Y Y Y 4.4.4.4.4.4.4.,.] x.% O     % % %   @ .   O + @ ",
"% % %   % % %   %   % % % . % . k.k 4.4.&.4.4.B B B 4.M  .4.4.4.4.R M V 4.4.4.4.4.4.4.6.4.5.3.b   o % +     % %     o     % % @ ",
"% %     % %   % O   % %   # X . % & v k } 4.4.5.4.4.4.4...B 4.4.4.4.4.4.4.4.4.4.6.4.4.2.v v v > % O   + %   %     % %     % %   ",
"%             @ O       O # . + % @     b.G v 4.4.4.4.4.4.4.4.4.,.4.4.4.6.4.4.4.6.~ m v O @   O O @ . O         % % % %   %     ",
"      % % % .   O O o % # #       O     ; - : n v v G 5.4.6.4.4.6.6.4.6.*.~ v v v i 1 , %   . %   @ O @ %   % %               % ",
"% %     % % % . O #   % #     #     @ & @ o O l.l.l.l.$.$.X.X.;.X.;.$.X.%.j.l.l.v.w.  #     @ %   %   o O   % % %   % %   + % % ",
"% % %     % % . # #   %     % % O o % @     @ #   %   l v v n v v v v v v e.% #   #       % X %       % @     @ %   @ %   o % % ",
"  % % @ o O % %   %       # # % %   %   o @ . @       % % # # O # X + # + + % @       #   %       %   + . o O   @ o O o         ",
"O   O   @ # O %       %   % %   @ .     @ #       %   % #   @ O O @ # . @ % % . O . % %   %     % % . % O   % % .         % % % ",
". % %   #   . %     % %   % +     . @ . O % . . % %   %     @ o # # o   # #   . % O + @       % % %   O O . % % @   % %     % % ",
"# % %             % % %     %   . @ @   .     @ % %         . O @ O @   @     @ % O o o X . . % %     @     . @ %   % % % .   % ",
"% %     % % %     % %     O     % % %   @     @ %     % % %   . O . # . . . @ @ % @   O @ %   %     @ . . @ @ o %     % % @ . O ",
"%     % % % O %   %     # %     % % . . % @   %     % % @ O   % @     . @   # @   %   X + o   .   % % .   % % o   O % .   O O % ",
"    % % %   .         % % % %   @     @ O .       % % %   @ @ O %     % % . % @       @ . O   % %   . @   @     @ % %     % %   ",
"% %         o %   % %           .   % @ % @   % %           @ o .   % % @   . #     % %   @ . % % %   o       % % %             ",
"% % %   % %   O . % % %   % %   % @ .   . O   % % %   % %   # @     % #     o .   % % %   % O . % % . @ . % %           % % %   "
};
