/* XPM */
static char *result[] = {
/* columns rows colors chars-per-pixel */
"64 64 223 2 ",
"   c #030303",
".  c #0A0A04",
"X  c #0B0B0B",
"o  c #050B04",
"O  c #180C05",
"+  c #0B1706",
"@  c #11130E",
"#  c #171708",
"$  c #131313",
"%  c #1B1B1B",
"&  c #151A14",
"*  c #0F0F10",
"=  c #2A1304",
"-  c #281705",
";  c #251B16",
":  c #351607",
">  c #0D2307",
",  c #0B2A05",
"<  c #142D08",
"1  c #093504",
"2  c #133C09",
"3  c #17360B",
"4  c #192316",
"5  c #1B3812",
"6  c #252508",
"7  c #392508",
"8  c #263808",
"9  c #342F12",
"0  c #242323",
"q  c #2C2C2C",
"w  c #282924",
"e  c #353535",
"r  c #3C3C3C",
"t  c #383C36",
"y  c #372F2A",
"u  c #471A04",
"i  c #561A03",
"p  c #631D03",
"a  c #462606",
"s  c #592705",
"d  c #463408",
"f  c #583506",
"g  c #492D13",
"h  c #662904",
"j  c #732803",
"k  c #783405",
"l  c #663607",
"z  c #503726",
"x  c #0B4803",
"c  c #15440A",
"v  c #194D0C",
"b  c #0A5802",
"n  c #1B580C",
"m  c #1D4B12",
"M  c #1C5011",
"N  c #2A4A0B",
"B  c #22580C",
"V  c #284715",
"C  c #374718",
"Z  c #34571A",
"A  c #315912",
"S  c #0B6801",
"D  c #1E620D",
"F  c #1B6A0B",
"G  c #0D7802",
"H  c #1F740D",
"J  c #216C0E",
"K  c #24650D",
"L  c #25760F",
"P  c #34730E",
"I  c #266216",
"U  c #257E10",
"Y  c #2E741B",
"T  c #386816",
"R  c #395233",
"E  c #465619",
"W  c #50520E",
"Q  c #6F4C0B",
"!  c #54671E",
"~  c #516C13",
"^  c #6E6B0A",
"/  c #4A522D",
"(  c #566E24",
")  c #5B7322",
"_  c #5F7823",
"`  c #4B6525",
"'  c #647B31",
"]  c #637826",
"[  c #2C4A64",
"{  c #444544",
"}  c #4A4B4A",
"|  c #5D5D5D",
" . c #555555",
".. c #686868",
"X. c #777777",
"o. c #6A7068",
"O. c #872803",
"+. c #992D03",
"@. c #8C3904",
"#. c #863603",
"$. c #973C03",
"%. c #A73703",
"&. c #B03303",
"*. c #CC3A02",
"=. c #8E4E05",
"-. c #A74403",
";. c #B54902",
":. c #BA4B03",
">. c #A85904",
",. c #897309",
"<. c #A97107",
"1. c #C34D03",
"2. c #C95103",
"3. c #D85502",
"4. c #D74202",
"5. c #E44D02",
"6. c #E55A02",
"7. c #F25802",
"8. c #C67B06",
"9. c #D57505",
"0. c #D06D04",
"q. c #E86802",
"w. c #FE6501",
"e. c #F56502",
"r. c #E67003",
"t. c #0E8E00",
"y. c #0D8401",
"u. c #168707",
"i. c #139403",
"p. c #199B06",
"a. c #1C9E08",
"s. c #0F9001",
"d. c #259A0E",
"f. c #278210",
"g. c #2A8D11",
"h. c #2B9412",
"j. c #2E9C13",
"k. c #2F8F10",
"l. c #1FA009",
"z. c #23A40C",
"x. c #28AA0E",
"c. c #2CAD11",
"v. c #2FA113",
"b. c #31A514",
"n. c #32AC14",
"m. c #35A217",
"M. c #2EB012",
"N. c #35B715",
"B. c #36B816",
"V. c #3BBC1B",
"C. c #3BB516",
"Z. c #3D9227",
"A. c #3DAE21",
"S. c #4E8A0F",
"D. c #75960E",
"F. c #6B940F",
"G. c #4CAA13",
"H. c #54A913",
"J. c #42B315",
"K. c #6BA210",
"L. c #6B8827",
"P. c #78982B",
"I. c #748D36",
"U. c #45AA2C",
"Y. c #4ABB2E",
"T. c #7DA02D",
"R. c #3FC11F",
"E. c #43C523",
"W. c #46C826",
"Q. c #4BCC2B",
"!. c #4FD12F",
"~. c #54D434",
"^. c #56D836",
"/. c #58DA38",
"(. c #57D838",
"). c #51C834",
"_. c #88950D",
"`. c #92910C",
"'. c #8F8F0C",
"]. c #A7890A",
"[. c #B78308",
"{. c #84A82F",
"}. c #86A933",
"|. c #93BB34",
" X c #8EB533",
".X c #9FCB38",
"XX c #9AC437",
"oX c #A1CD3B",
"OX c #A5D13E",
"+X c #8AA743",
"@X c #97B849",
"#X c #A2C64F",
"$X c #ABD745",
"%X c #ACD254",
"&X c #B1D856",
"*X c #AACD52",
"=X c #BBE55A",
"-X c #C1ED5B",
";X c #C5F05E",
":X c #C7F360",
">X c #4F7291",
",X c #797E82",
"<X c #4777A0",
"1X c #5288B9",
"2X c #5995C9",
"3X c #5D9CD2",
"4X c #60A0D8",
"5X c #79ADDA",
"6X c #858585",
"7X c #979797",
"8X c #A7A7A7",
"9X c #B8B8B8",
"0X c #8EB4D5",
"qX c #B7C8D8",
"wX c #A7C2DB",
"eX c #C5C5C5",
"rX c #CCCCCC",
"tX c gainsboro",
"yX c #D3D3D3",
"uX c #E3E3E3",
"iX c #EBEBEB",
"pX c #F3F3F3",
"aX c #FEFEFE",
/* pixels */
"4X4X4X4X4X4X4X4X4X4X4X4X4X4X4X4X4X4X4X4X4X4X4X4X4X4X4X4X4X4X4X4X4X4X4X4X4X4X4X4X4X4X4X4X4X4X4X4X4X4X4X4X4X4X4X4X4X4X4X4X4X4X4X4X",
"4X4X4X4X4X4X4X4X4X4X4X4X4X4X4X4X4X4X4X4X4X4X4X4X4X4X4X4X4X4X4X4X4X4X4X4X4X4X4X4X4X4X4X4X4X4X4X4X4X4X4X4X4X4X4X4X4X4X4X4X4X4X4X4X",
"4X4X4X4X4X4X4X4X4X4X4X4X4X4X4X4X4X4X4X4X4X4X4X4X4X4X4X4X4X4X4X4X4X4X4X4X4X4X4X4X4X4X4X4X4X4X4X4X4X4X4X4X4X4X4X4X4X4X4X4X4X4X4X4X",
"4X4X4X4X4X4X4X4X4X4X4X4X4X4X4X4X4X4X4X4X4X4X4X4X4X4X4X4X4X4X4X4X4X4X4X4X4X4X4X4X4X4X4X4X4X4X4X4X4X4X4X4X4X4X4X4X4X4X4X4X4X4X4X4X",
"4X4X4X4X4X4X4X4X4X4X4X4X4X4X4X4X4X4X4X4X4X4Xq % % % X X & 4X4X4X4X4X4X4X4X4X4X4X4X4X4X4X4X4X4X4X4X4X4X4X4X4X4X4X4X4X4X4X4X4X4X4X",
"4X4X4X4X4X4X4X4X4X4X4X4X4X4X4X4X4X4X4X4X4X  s -.;.-.#.s y 0 o 4X4X4X4X4X4X4X4X4X4X4X4X4X4X4X4X4X4X4X4X4X4X4X4X4X4X4X4X4X4X4X4X4X",
"4X4X4X4X4X4X4X4X4X4X4X4X4X4X4X4X4X4X4X4Xq z e.w.w.w.w.w.w.2.h X   4X4X4X4X4X4X4X4X4X4X4X4X4X4X4X4X4X4X4X4X4X4X4X4X4X4X4X4X4X4X4X",
"4X4X4X4X4X4X4X4X4X4X4X4X4X4X4X4X4X4X4X4Xq k w.w.w.w.w.w.w.w.6.-.  X 4X4X4X4X4X4X4X4X4X4X4X4X4X4X4X4X4X4X4X4X4X4X4X4X4X4X4X4X4X4X",
"4X4X4X4X4X4X4X4X4X4X4X4X4X4X4X4X4X4X4X4X@ ;.w.w.w.w.w.6.2.7.w.w.6.O   0X4X2Xe 2X4X4X4X4X4X4X4X4X4X4X4X4X4X4X4X4X4X4X4X4X4X4X4X4X",
"4X4X4X4X4X4X4X4X4X4X4X4X4X4X4X4X4X4X4X4Xz 2.w.w.w.w.w.w.:.@.2.w.w.e.    4X$ / e 3X4X4X4X4X4X4X4X4X4X4X4X4X4X4X4X4X4X4X4X4X4X4X4X",
"4X4X4X4X4X4X4X4X4X4X4X4X4X4Xr q w %   . #.e.w.e.q.q.r.r.r.9.Q h 0.8.8.=.o & g @ 4X4X4X4X4X4XwX  4X4X4X4X4X4X4X4X4X4X4X4X4X4X4X4X",
"4X4X4X4X4X4X4X4X4X4X4X4X% @ s k s a = a 0.9.9.9.l a 8.8.8.[.,.Q 7 ,.].].9 u @.X 4X4X4X4X4X  q   4X4X4X4X4X4X4X4X4X4X4X4X4X4X4X4X",
"4X4X4X4X4X4X4X4X4X4X4X4X  f 8.8.8.8.<.<.[.[.].].d - ,.`.`.`.'.^ A ~ D.D.F.8 - &   X 1X4X  / g   4X4X4X4X4X4X4X4X4X4X4X4X4X4X4X4X",
"4X4X4X4X4X4X4X4X4X4X4X4X  Q ].].,.^ ^ '.`.`._._.8 : W D.K.K.K.H.j.S.G.H.H.P n K > q * X y #.z e 4X4X4X4X4X4X4X4X4X4X4X4X4X4X4X4X",
"4X4X4X4X4X4X4X4X4X4X4X4Xo W D.D.F.~ W N A S.G.N.2 #.f L J.J.C.N.N.N.N.N.N.N.M.N.N.b.n o %.2.X 4X4X4X4X4X4X4X4X4X4X4X4X4X4X4X4X4X",
"4X4X4X4X4X4X4X4X4X4X4X4X@ P H.H.G.k.k.b.C.N.C.C.2 k 2.7 V.V.N.N.N.N.N.N.N.N.N.N.N.N.M p 7.%.  qX4X4X4X4X4X4X4X4X4X4X4X4X4X4X4X4X",
"4X4X4X4X4X4X4X4X4X4X4X* > m.b.L M U n.B.R.W.!.~.I h %.W (.(.Q.R.N.N.N.N.R.W.E.R.N.v.f *.e.l >   X 2X3X4X3X$ 4X4X4X4X4X4X4X4X4X4X",
"4X4X4X4X4X4X4X4X4X4Xq + j.U c < j.N.V.W.^.^./.^.U.Y T U././.(.(.E.B.N.R./././.^.R.N.N j :.9 b.U %   0X    % $ 4X4X4X4X4X4X4X4X4X",
"4X4X4X4X4X4X4X4X4X4Xo v v.2 n n.j.W.(./././././././././././.Y.(./.Q.B.!././././.^.R.n.L J j.N.N.b.+   s -.o 5X4X4X4X4X4X4X4X4X4X",
"4X4X4X4X4X4X4X4X4X4Xo 2 , n B.m.o Z )././././././././././.).5 V ^.!.N.R././././.~.V.N.N.B.B.N.N.B.n.v u s $ 3X3X4X4X4X4X4X4X4X4X",
"4X4X4X4X5XO @ % { [ * @ K n.Q.!.= l Z Y./././././././././.Y.7 #.Y C.N.N.W.!.^.^.W.B.N.N.N.N.N.N.B.B.b.n % o X $ 4X4X4X4X4X4X4X4X",
"4X4X4X4X1Xy k h y 0 q < N.W././.@ ;.k Z /././././././././.U.s 5.7 h.N.N.N.V.E.E.N.N.b.H U N.N.N.N.B.j.D X 0 q r * X 4X3X4X4X4X4X",
"4X4X4X4X4Xe g 5.e.:.a B E.(././.m j 5.^ /./././.(.(.(.!.E.m.7 j h U N.N.N.N.N.N.N.f.# = h.N.N.N.M.J 0 o.eXuXuXrX6Xr *   4X4X4X4X",
"4X4X4X4X4X<Xo i 7.w.3.W Q.(././.Z.: %.E /././.^.~.W.B.N.N.N.v.U j.N.N.N.N.N.N.N.D - -.8 N.N.N.N.c r uXaXpXpXaXaXaXpX .$ 3X4X4X4X",
"4X4X4X4X4X4X% w +.5.2.N E.^././.~.T C Z.^.~.E.V.N.N.N.N.N.N.N.N.N.N.N.N.N.N.N.N.< k l U N.N.N.U } yXyXo.e o.8XyXaXaXuX. X 4X4X4X",
"4X4X4X4X4X4X3Xq = +.s U N.W././.(.(.(.(.A.I < , < v j.N.N.B.N.B.N.N.N.B.N.N.N.N.j.B n N.N.N.j.< rXiXe   * eXrXr iXaXaXpXq 0 4X4X",
"4X4X4X4X4X4X4Xe > n h.N.N.B.E.!.^.~.Y.I 4 | 7X8X7X| & 2 n.B.N.N.N.N.N.N.N.N.B.N.N.N.B.N.N.N.f.% aX7X      | 7X% ,XaXaXaXX.* 4X4X",
"4X4X4X4X4X4X4Xq J N.N.N.N.N.N.N.N.v.3 } iXaXaXaXaXaXtX ., j.B.B.N.N.N.N.N.N.N.N.N.N.N.N.N.N.J { aX..            } uXaXaX8XX 4X4X",
"4X4X4X4X4X4X>Xq j.N.N.N.N.N.N.N.c.M 6XiXaXaXaXuX1XX.9XrX| m n.B.N.B.N.N.N.N.B.N.N.N.N.N.N.N.H e aXX.o           | iXaXaX8X& 4X4X",
"4X4X4X4X4X4Xq 4 N.N.N.N.N.N.N.N.L { pXaXaXaX9Xq O | tX..yXo.h.B.N.N.N.N.N.N.N.N.N.N.N.N.N.N.g.+ iX9XX           8XaXaXaX6X% 4X4X",
"4X4XX $ $ X O < N.N.N.N.N.N.N.N.1 7XaXaXaXpX{   . z rX| ..9XI B.N.N.N.N.N.N.N.N.N.N.N.N.N.N.n.n ..yXX.X     X | aXaXpXyX} o 4X4X",
"4X4X% $ = -.k v N.N.N.N.N.N.N.N.& 9XaXaXaXuX0           q 9XR n.B.N.N.N.B.N.N.N.N.N.N.N.N.N.N.N.+ | eX9X| ..9XpXiXtXrX8XX r 4X4X",
"4X4X4X2X} % # K N.N.N.N.N.N.N.N.$ 8XpXaXaXuX0           e rXR j.N.N.N.N.N.N.N.N.N.N.B.N.N.N.N.N.h.2 { 1X9XqXrXrXqX8Xo.r X 2X3X4X",
"4X4X4X4X4X4X  J N.N.N.N.N.N.N.N.> 6XuXaXaXaX|           ,XuXR j.N.N.N.N.N.N.N.N.N.B.N.N.N.N.h.N.N.d.n < % q t z w &     4X4X4X4X",
"4X4X4X4X4X4X  J n.N.N.N.N.N.N.N.D t eXuXaXaXtX .    o { pXrX5 M.B.N.N.N.N.N.N.N.f.f.N.N.N.b.n N.N.N.p.s.G S S S S 5   4X4X4X4X4X",
"4X4X4X4X4X4X. > = 3 n.N.N.N.N.N.n.c o.eXtXpXaXaX8X7XrXaXiX..D N.N.N.N.B.N.B.N.N.n.v h.N.B.v.1 u.N.N.N.z.s.s.s.s.i.v   4X4X4X4X4X",
"4X4X4X4X4X4X% k 6.@.K B.N.C.N.N.N.j.3 { 8XeXtXiXpXiXuXeX| 2 d.N.N.N.N.B.N.N.N.N.N.H > 2 c c n n z.N.N.N.c.x.l.z.c.M   4X4X4X4X4X",
"4X4X4X4X4X$ j 5.4.+.8 N.N.N.N.N.N.N.a.b * q ..6X7X6X{ 0 1 u.N.N.N.N.c.N.N.N.N.N.n.u.c h.h.v.N.n.s.i.a.d.M.N.N.N.N.3 X   4X4X4X4X",
"4X4X4X4X$ % o o 1 x j.N.N.n.N.N.N.N.N.c.t.S 1 1 , , x S p.M.N.N.N.N.M.z.M.N.N.N.p.G J N.N.N.N.N.M.p.p.x.N.N.N.B.N.8 #.= X wX4X4X",
"4X4X4X4X4X4X. & s.i.x.N.n O 3 h.N.N.N.N.N.x.p.i.s.i.p.z.N.N.N.N.N.N.N.N.z.p.i.i.p.g.M.N.N.N.N.N.C.N.N.N.N.N.N.N.j.<   o   4X4X4X",
"4X4X4X4X4X4X0X  G s.i.d.# -.k n N.N.N.N.N.N.N.N.N.N.N.N.N.N.N.N.N.N.N.N.N.N.c.M.N.N.N.N.B.N.N.N.N.N.N.N.N.n.L k.U * 4X4X4X4X4X4X",
"4X4X4X4X4X4X3X  b s.s.b s s B b.N.N.N.N.N.N.N.N.N.N.N.N.N.N.N.N.N.N.N.N.N.B.N.B.N.N.N.B.B.B.N.N.N.N.N.N.N.k.k =.+   4X4X4X4X4X4X",
"4X4X4X4X4X4X4X,Xo y.G , + F N.N.N.N.N.N.N.N.N.N.N.B.N.N.N.N.N.N.N.N.N.N.N.N.B.N.N.N.N.N.B.B.B.B.N.N.N.N.N.n.v 8 $ X 4X4X4X4X4X4X",
"4X4X4X4X4X4X4X4Xo 1 y.G t.s.c.N.N.N.N.N.N.N.N.N.N.N.N.N.N.N.N.N.N.N.N.N.N.N.N.N.b.U n 2 5 C C C V 5 n j.N.N.N.h.X 4X4X4X4X4X4X4X",
"4X4X4X4X4X4X2X  O . b s.t.s.p.x.N.N.N.N.N.N.N.N.N.N.N.N.N.N.N.N.N.N.N.N.C.b.f.I Z ` I.@X#X*X&X&X%X@X' A h.N.x.v   3X4X4X4X4X4X4X",
"4X4X4X4X4X4XX   i O o x t.y.i.u.x.N.n.J 2 g.N.N.N.N.N.N.N.N.N.N.N.d.m.j.c 3 L.@X=X;X:X:X:X:X:X:X;X;X:X&X5 f.S . *   4X4X4X4X4X4X",
"4X4X4X4X4X4X3X    * ; $ + B j.x t.p.H u :.9 n.N.N.N.N.N.N.N.C.n.< s a 5 +X=X:X:X:X:X:X;X:X:X:X:X;X;X:X-X) x 1 c T W   @ 4X4X4X4X",
"4X4X4X4X4X4X4X4X3X3X  . ~ F.~ < S y.b h f K N.N.N.N.N.n.g.J 5 5 i 6.-.' :X:X:X:X:X;X&X=X:X:X:X:X:X-X$XoXL.+ 8 D.h h :.:.;   4X4X",
"4X4X4X4X4X4X4X4X2X  9 Q W ^ ^ # N 3 , O # n J J D M m V E / +X#X9 $.=.+X:X:X;X;X:X+XW Q %X;X-X=X$XI.W }.( & 7 =.2.:.-.:.h X 3X3X",
"4X4X4X4X4X4X4X4X  w @.a >.>.Q 6 XX|.P.) _ ! ~ ) T.@X#X%X-X:X:X:X@X9 g %X:X:X:X;X:X' :.e.] $XOXoXP.a +.7 % r z ;.k :.w.e.7 % 4X4X",
"4X4X4X4X4X4X4X4X  #.#.1.e.-.>.a oX.X.X.XoX.X.X.XoXOX}./ {.&X;X;X:X' ` ;X:X:X;X;X;XI.@.-.] oXoX.X) : +.+.| X   u 3.q.3.j   3X4X4X",
"4X4X4X4X4X4X4X0X  6.w.w.q.#.3.- {..X.XoXoX.X.X.X.X.XL.= j ! oXoX$X$XOX$X$X$XOXoXoX}.a : |.oXoXoX|.E % ; = $ 2X  X o   X 3X4X4X4X",
"4X4X4X4X4X4X4X4X  3.w.w.@.;.-.o X E |.oX.X.X.X.X.X.X}.6 O.! .X.XoXoXXXoXXXoXoX.XoX X6 E .X.XXX}.+           <X4X4X4X4X4X4X4X4X4X",
"4X4X4X4X4X4X4X4X  j w.w.1.e.l   o   . ] .X.X.X.X.X.X|.Z = {..XoXXXoXoXoXoXoXXXoXoXXXP.|.oXXX! + } 4X4X4X5Xq 2X4X4X4X4X4X4X4X4X4X",
"4X4X4X4X4X4X4X4X0X  X : @.s   3X3X  *   o ` }.] E L.oXT.P.XXoXXX.XoXXX{.! P.XXoXXXoXoX X& X * % 2X4X4X4X4X4X4X4X4X4X4X4X4X4X4X4X",
"4X4X4X4X4X4X4X4X4X4XwX%   * 1X3X4X4X4X4XX   * u &.f |..XoXoXoXoX.XoXL.= O.p ) |.P.(     o >X3X4X4X4X4X4X4X4X4X4X4X4X4X4X4X4X4X4X",
"4X4X4X4X4X4X4X4X4X4X4X4X4X4X4X4X4X4X4X4X4X3X  u %.: R ` ! L.L.P.P.P.C u *.j .       % qX3X4X4X4X4X4X4X4X4X4X4X4X4X4X4X4X4X4X4X4X",
"4X4X4X4X4X4X4X4X4X4X4X4X4X4X4X4X4X4X4X4X4X3XX 0 i X X X X X X X % % % . O.i   qX4X4X4X4X4X4X4X4X4X4X4X4X4X4X4X4X4X4X4X4X4X4X4X4X",
"4X4X4X4X4X4X4X4X4X4X4X4X4X4X4X4X4X4X4X4X4X4X4XX   e 4X4X3X4X4X4X4X4X4X. = ;   4X4X4X4X4X4X4X4X4X4X4X4X4X4X4X4X4X4X4X4X4X4X4X4X4X",
"4X4X4X4X4X4X4X4X4X4X4X4X4X4X4X4X4X4X4X4X4X4X4X  0 3X4X4X4X4X4X4X4X4X4X2X  * 4X4X4X4X4X4X4X4X4X4X4X4X4X4X4X4X4X4X4X4X4X4X4X4X4X4X",
"4X4X4X4X4X4X4X4X4X4X4X4X4X4X4X4X4X4X4X4X4X4X4X  3X4X4X4X4X4X4X4X4X4X4X4XqX  4X4X4X4X4X4X4X4X4X4X4X4X4X4X4X4X4X4X4X4X4X4X4X4X4X4X",
"4X4X4X4X4X4X4X4X4X4X4X4X4X4X4X4X4X4X4X4X4X4X4X4X4X4X4X4X4X4X4X4X4X4X4X4X3X3X4X4X4X4X4X4X4X4X4X4X4X4X4X4X4X4X4X4X4X4X4X4X4X4X4X4X",
"4X4X4X4X4X4X4X4X4X4X4X4X4X4X4X4X4X4X4X4X4X4X4X4X4X4X4X4X4X4X4X4X4X4X4X4X4X4X4X4X4X4X4X4X4X4X4X4X4X4X4X4X4X4X4X4X4X4X4X4X4X4X4X4X",
"4X4X4X4X4X4X4X4X4X4X4X4X4X4X4X4X4X4X4X4X4X4X4X4X4X4X4X4X4X4X4X4X4X4X4X4X4X4X4X4X4X4X4X4X4X4X4X4X4X4X4X4X4X4X4X4X4X4X4X4X4X4X4X4X"
};
