/* XPM */
static char *result[] = {
/* columns rows colors chars-per-pixel */
"64 64 7 1 ",
"  c #02000F",
". c #004E90",
"X c #0886BD",
"o c #60A0D8",
"O c #47C2E4",
"+ c #A6D8CF",
"@ c #D6EDE8",
/* pixels */
"oooooooooooooooooooooooooooooooooooooooooooooooooooooooooooooooo",
"oooooooooooooooooooooooooooooooooooooooooooooooooooooooooooooooo",
"oooooooooooooooooooooooooooooooooooooooooooooooooooooooooooooooo",
"oooooooooooooooooooooooooooooooooooooooooooooooooooooooooooooooo",
"ooooooooooooooooo                ooooooooooooooooooooooooooooooo",
"ooooooooooooooooo                ooooooooooooooooooooooooooooooo",
"ooooooooooooooooo                ooooooooooooooooooooooooooooooo",
"ooooooooooooooooo                ooooooooooooooooooooooooooooooo",
"ooooooooo        XXXX@@@@OOOOXXXX        ooooooooooooooooooooooo",
"ooooooooo        XXXX@@@@OOOOXXXX        ooooooooooooooooooooooo",
"ooooooooo        XXXX@@@@OOOOXXXX        ooooooooooooooooooooooo",
"ooooooooo        XXXX@@@@OOOOXXXX        ooooooooooooooooooooooo",
"ooooo    XXXXOOOOOOOOOOOOOOOOOOOOOOOOXXXX    ooooooooooooooooooo",
"ooooo    XXXXOOOOOOOOOOOOOOOOOOOOOOOOXXXX    ooooooooooooooooooo",
"ooooo    XXXXOOOOOOOOOOOOOOOOOOOOOOOOXXXX    ooooooooooooooooooo",
"ooooo    XXXXOOOOOOOOOOOOOOOOOOOOOOOOXXXX    ooooooooooooooooooo",
"o    XXXXOOOOOOOOOOOOOOOOOOOO    OOOOOOOO    ooooooooooooooooooo",
"o    XXXXOOOOOOOOOOOOOOOOOOOO    OOOOOOOO    ooooooooooooooooooo",
"o    XXXXOOOOOOOOOOOOOOOOOOOO    OOOOOOOO    ooooooooooooooooooo",
"o    XXXXOOOOOOOOOOOOOOOOOOOO    OOOOOOOO    ooooooooooooooooooo",
"o    OOOOOOOOOOOOOOOOOOOOOOOO....@@@@OOOOXXXX    ooooooooooooooo",
"o    OOOOOOOOOOOOOOOOOOOOOOOO....@@@@OOOOXXXX    ooooooooooooooo",
"o    OOOOOOOOOOOOOOOOOOOOOOOO....@@@@OOOOXXXX    ooooooooooooooo",
"o    OOOOOOOOOOOOOOOOOOOOOOOO....@@@@OOOOXXXX    ooooooooooooooo",
"o                        OOOOOOOOOOOOOOOOXXXX    ooooooooooooooo",
"o                        OOOOOOOOOOOOOOOOXXXX    ooooooooooooooo",
"o                        OOOOOOOOOOOOOOOOXXXX    ooooooooooooooo",
"o                        OOOOOOOOOOOOOOOOXXXX    ooooooooooooooo",
"o    ++++++++++++++++++++    XXXXOOOOOOOOOOOO    ooooooooooooooo",
"o    ++++++++++++++++++++    XXXXOOOOOOOOOOOO    ooooooooooooooo",
"o    ++++++++++++++++++++    XXXXOOOOOOOOOOOO    ooooooooooooooo",
"o    ++++++++++++++++++++    XXXXOOOOOOOOOOOO    ooooooooooooooo",
"o    @@@@@@@@@@@@@@@@@@@@@@@@OOOOOOOOOOOOOOOOXXXX    ooooooooooo",
"o    @@@@@@@@@@@@@@@@@@@@@@@@OOOOOOOOOOOOOOOOXXXX    ooooooooooo",
"o    @@@@@@@@@@@@@@@@@@@@@@@@OOOOOOOOOOOOOOOOXXXX    ooooooooooo",
"o    @@@@@@@@@@@@@@@@@@@@@@@@OOOOOOOOOOOOOOOOXXXX    ooooooooooo",
"ooooo    @@@@@@@@@@@@@@@@@@@@++++OOOOOOOOOOOO@@@@....          o",
"ooooo    @@@@@@@@@@@@@@@@@@@@++++OOOOOOOOOOOO@@@@....          o",
"ooooo    @@@@@@@@@@@@@@@@@@@@++++OOOOOOOOOOOO@@@@....          o",
"ooooo    @@@@@@@@@@@@@@@@@@@@++++OOOOOOOOOOOO@@@@....          o",
"ooooo    ++++@@@@@@@@@@@@@@@@@@@@@@@@OOOOOOOOOOOOXXXXXXXXXXXX  o",
"ooooo    ++++@@@@@@@@@@@@@@@@@@@@@@@@OOOOOOOOOOOOXXXXXXXXXXXX  o",
"ooooo    ++++@@@@@@@@@@@@@@@@@@@@@@@@OOOOOOOOOOOOXXXXXXXXXXXX  o",
"ooooo    ++++@@@@@@@@@@@@@@@@@@@@@@@@OOOOOOOOOOOOXXXXXXXXXXXX  o",
"ooooooooo    ++++@@@@@@@@@@@@@@@@@@@@@@@@OOOOXXXXXXXXXXXX    ooo",
"ooooooooo    ++++@@@@@@@@@@@@@@@@@@@@@@@@OOOOXXXXXXXXXXXX    ooo",
"ooooooooo    ++++@@@@@@@@@@@@@@@@@@@@@@@@OOOOXXXXXXXXXXXX    ooo",
"ooooooooo    ++++@@@@@@@@@@@@@@@@@@@@@@@@OOOOXXXXXXXXXXXX    ooo",
"ooooooooooooo    ++++++++++++XXXX....++++XXXXXXXXXXXX    ooooooo",
"ooooooooooooo    ++++++++++++XXXX....++++XXXXXXXXXXXX    ooooooo",
"ooooooooooooo    ++++++++++++XXXX....++++XXXXXXXXXXXX    ooooooo",
"ooooooooooooo    ++++++++++++XXXX....++++XXXXXXXXXXXX    ooooooo",
"ooooooooooooo    XXXX    OOOOXXXX            ....XXXX    ooooooo",
"ooooooooooooo    XXXX    OOOOXXXX            ....XXXX    ooooooo",
"ooooooooooooo    XXXX    OOOOXXXX            ....XXXX    ooooooo",
"ooooooooooooo    XXXX    OOOOXXXX            ....XXXX    ooooooo",
"ooooooooooooo    XXXX    OOOO    oooo    ....    XXXX    ooooooo",
"ooooooooooooo    XXXX    OOOO    oooo    ....    XXXX    ooooooo",
"ooooooooooooo    XXXX    OOOO    oooo    ....    XXXX    ooooooo",
"ooooooooooooo    XXXX    OOOO    oooo    ....    XXXX    ooooooo",
"oooooooooooooooooooooooooooooooooooooooooooooooooooooooooooooooo",
"oooooooooooooooooooooooooooooooooooooooooooooooooooooooooooooooo",
"oooooooooooooooooooooooooooooooooooooooooooooooooooooooooooooooo",
"oooooooooooooooooooooooooooooooooooooooooooooooooooooooooooooooo"
};
