/* XPM */
static char *result[] = {
/* columns rows colors chars-per-pixel */
"64 64 105 2 ",
"   c #000000",
".  c #070708",
"X  c #070809",
"o  c #0A0C0C",
"O  c #0B0F11",
"+  c #180F12",
"@  c #0D1214",
"#  c #0D151A",
"$  c #0F191C",
"%  c #111211",
"&  c #1A1114",
"*  c #161817",
"=  c #121619",
"-  c #111C1D",
";  c #1B1C1B",
":  c #0F1A21",
">  c #121D24",
",  c #121F28",
"<  c #142324",
"1  c #1F2221",
"2  c #14222B",
"3  c #18242D",
"4  c #16292B",
"5  c #192D2E",
"6  c #1A2731",
"7  c #1B2B33",
"8  c #1D2D39",
"9  c #1C3334",
"0  c #1F393A",
"q  c #212221",
"w  c #262924",
"e  c #272A28",
"r  c #2C2E2C",
"t  c #2F302E",
"y  c #212F39",
"u  c #2F3330",
"i  c #21363A",
"p  c #233C3E",
"a  c #323533",
"s  c #353836",
"d  c #363A38",
"f  c #3A3D3B",
"g  c #3E413E",
"h  c #40433F",
"j  c #4A5636",
"k  c #4D5A35",
"l  c #4A543C",
"z  c #677B3F",
"x  c #263E40",
"c  c #283F41",
"v  c #264244",
"b  c #2A4244",
"n  c #3E4441",
"m  c #424643",
"M  c #454945",
"N  c #494C47",
"B  c #474B49",
"V  c #4D4C4C",
"C  c #4D514D",
"Z  c #535B46",
"A  c #50534D",
"S  c #4F5350",
"D  c #535552",
"F  c #595757",
"G  c #555955",
"H  c #595C56",
"J  c #575C59",
"K  c #5B5A59",
"L  c #5C6B40",
"P  c #5B644D",
"I  c #5F6A49",
"U  c #5E615C",
"Y  c #606C47",
"T  c #626D4C",
"R  c #637049",
"E  c #646F51",
"W  c #61645E",
"Q  c #626B58",
"!  c #6C765C",
"~  c #646663",
"^  c #656963",
"/  c #696D65",
"(  c #6B6D6A",
")  c #6D7166",
"_  c #6E726A",
"`  c #707267",
"'  c #707864",
"]  c #72766D",
"[  c #75796E",
"{  c #797B6E",
"}  c #6F7070",
"|  c #737473",
" . c #767A72",
".. c #7A7D74",
"X. c #797979",
"o. c #7D8076",
"O. c #7E8279",
"+. c #808377",
"@. c #81857B",
"#. c #85897E",
"$. c #838383",
"%. c #848982",
"&. c #898D84",
"*. c #898989",
"=. c #9B9B9B",
/* pixels */
"=.=.=.=.V V V V $.$.$.$.$.$.$.$.z z z z L z R R %.$.$.X.*.*.=.*.=.&.*.*.U J J J X.X.X.X.X.X.X.X.I R R R z z z z $.$.$.$.=.=.=.=.",
"=.=.=.=.V V V V $.$.$.$.$.$.$.$.z z z z L L R R %.O.| } %.%.%.O.%.%.%.%.O.~ F F X.X.X.X.X.X.X.X.R R R R z z z z $.$.$.$.=.=.=.=.",
"=.=.=.=.V V V V $.$.$.$.$.$.$.$.z z z L R R R R $.X._ o.O.O.O.o.O.O.o. . .( K F X.X.X.X.X.X.X.X.R R R R z z z z $.$.$.$.=.=.=.=.",
"=.=.=.=.V V V V $.$.$.$.$.$.$.$.z z z o.R R R R $.X.}  .o.O.O.o.O.O.] _ ( W F F X.X.X.X.X.X.X.X.R R R R z z z z $.$.$.$.=.=.=.=.",
"*.*.$.*.F F K K $.$.$.$.X.X.X.X.X.X.X.X.R R R R } ( ~ ( o.o.o.o.o.O._ / _ U S G $.$.$.$.X.X.X.X.R R R R X.X.X.X.X.X.X.X.*.*.*.*.",
"*.*.*.*.K K F K $.$.$.$.X.X.X.X.X.X.X.X.R R R R } } ~ ^ o.o.o.o.o.o._ / / J D F $.$.$.$.X.X.X.X.R R R R X.X.X.X.X.X.X.X.*.*.*.*.",
"*.*.*.*.K K K K $.$.$.$.X.X.X.X.X.X.X.o.R R R R | } ^ ~  . .o._ ..O.] _ ( D S F $.$.$.$.X.X.X.X.R R R R X.X.X.X.X.X.X.X.*.$.*.*.",
"*.*.*.*.K K K F $.$.$.$.X.X.X.X.} } X.o.R R Y P ( ( U J _  .o._ o...[ ] _ J J U X.X.X.O.X.X.X.| I R R R X.X.X.X.X.X.X.X.*.*.*.*.",
"$.$.$.$.V V V V R z z z X.X.{ ( / ^ } } } ~ ( ( _ _ U G /  .] _ .... . ._ U _ _ ' ! E L I R E ' ( $.$.$.X.X.X.X.X.X.X.X.X.X.X.X.",
"$.$.$.$.V V V V z z z z X.X.} ( _ ^ U ( ( ( _ o. . .W G W  .] _ .. .....^ / o.o.o.} _ Q P R ' O.} | X.$.X.X.X.X.X.X.X.X.X.X.X.X.",
"$.$.$.$.V F V V z z z z | } ] +.O._ U U ( O.o.} [ _ / J J ....o... . ...U } ..] _ _ o.] U ' #.#.&._ _ X.X.X.X.X.X.X.X.X.X.X.X.X.",
"$.$.$.$.V V V V z z z z } ] X.{  .O./ U  .O.o.o.o. ._ W U o.O.O.+.o...] U [ o.[ o._ _ ^ P #.#.#.@.O.( ( | X.X.X.X.X.X.X.X.X.X.X.",
"$.$.$.$.V V V V ~ ( ~ U /  . .{ _ [ ' / W  .o.o. ._ / U C ^ ) ` ` ` / ^ D ( [ [ _ o._ U U &.#.#.@.@.{ Q  .$.$.$.$.$.$.$.X.X.X.X.",
"$.$.$.$.V V V V ~ ~ ~ K ^  .]  .o.o.o.o.W U _ [ W S g r e a a a a a a a r h G ^ / _ ) U O.O.+.#.@.#.O._ X.$.$.$.$.$.$.$.X.X.X.X.",
"$.$.$.$.V V V V ~ ~ ( ~ / ^ ]  ._ [ _ o. .U W A u % .                       % t n U U ' #.#.O.o.o.#._ ^ X.$.$.$.$.$.$.$.X.X.X.X.",
"$.$.$.$.V V V V ~ ( ~ ~ ( J K  .o.[ [ o._ C q X                                 @ < g o.#.O.O.#...W J | X.$.$.$.$.$.$.$.X.X.X.X.",
"V V V V V V V V V V V V F U ~ W [  .[ [ C ; .                                       * m / ] ....G _ ) Z j k k k F J K K V V V V ",
"V V V V V V V V V V V V ~ @. .U W  .W M % .                                           % r U ^ G _ o.o.~ l j k k K K F K V V V V ",
"V V V V V V V V V V N J  ... ./ C G n *                                                 o a N ] O.@.@. .G j j k K K K K V V V V ",
"V V V V V V V F V V D ^ .. . .O.) n % .                                                   o h ..O.@.@.O.( Z k k K K K K V V V V ",
"$.$.$.$.$.$.$.$.=.*.| / { { o. .H ;                                                       . ; W { #.O.o.) W | *.*.$.*.*.$.$.$.$.",
"$.$.$.$.$.$.$.$.=.*.^ K / [ ..] s .                                                         . g ) O. .] U G } *.*.*.*.*.$.$.$.$.",
"$.$.$.$.$.$.$.$.*.@.] / / ) ) A *                                                             * C ) / ^ / U ) O.*.*.*.*.$.$.$.$.",
"$.$.$.$.$.$.$.$.*... . .] _ W r .                                                             . w G / ) [ ] / | *.*.*.*.$.$.$.$.",
"*.*.*.*.X.X.X.| | | { { [ ] G %                                                                 % D ` [ { ] / ~ X.X.X.X.X.X.X.X.",
"*.*.*.*.X.X.X.} ( ` { ` ` ` A .                                                                   A ( ` ` ] ` ~ } X.X.X.X.X.X.X.",
"$.*.*.*.X.X.X.` W / ( / / W f                                                                     a U ` ` ` ^ U } X.X.X.X.X.X.X.",
"*.*.*.*.X.| X.} ~ W W ~ W M *                                                                       m U W U U U } X.| | X.X.X.X.",
"X.X.X.X.X.~ ` | ` ( ( ( ~ M %                                                                       f U ~ ~ ~ ] o.X.| K X.X.X.X.",
"X.X.X.X.X.V ~ X.+.+.O.@...A %                                                                       m ] +.O.@.&.o.{ / M X.X.X.X.",
"X.X.X.X.X.F | X.{ ` ( ` ( C %                                                                       m ( o.o.@.X.{ ] ~ M X.X.X.X.",
"X.X.X.X.X.K X.X.X.@.o.] / N %                                                                       M _ ....+.+...{ ~ m X.X.X.X.",
"X.X.X.X.X.J ] ....+.@.o._ N %                                                                       N |  . .o.o. .{ / m X.X.X.X.",
"X.X.X.X.X.G _ X.........] N %                                                                       N  .o.o.o.o. .] W m X.X.X.X.",
"X.X.X.X.X.S ( / ( / / _ ) N %                                                                       M  . ._ ] _ ) ~ U m X.X.X.X.",
"X.X.X.X.X.C U U W W W ^ W m %                                                                       g ~ / ^ ~ W U G C n X.X.X.X.",
"| | | | | m B S C C C S C f %                                                                       s C C C C C B B M M | | | | ",
"| | | } | ~ ~ K J /  .X.( h %                                                                       f ^ .. .~ G K ~ ~ ~ | | | | ",
"| | | | | | X.~ ^ ..&.&...A %                                                                       m  .O.X./ U ( | | | | | | | ",
"| | | | | | | ~ ~ ] #.#.] C %                                                                       N X.o. .^ U ( | | } | | | | ",
"V V V V V V V V G ) ..+.{ A %                                                                       B ]  .[ / G B V V V V V V V ",
"V V V V V V V V D / [ ..' N %                                                                       m _ ] / ~ D V V V V V V V V ",
"V V V V V V V V G W [ { ` N +                                                                       g _ ( ~ U C V V V V V V V V ",
"V V V V V V V M G / ` _ W N %                                                                       g / ) W U S M V V V V V V V ",
"*.*.*.*.$.$.X.} U U ~ U J h %                                                                       g U ^ W J ~ D F F F *.*.*.*.",
"$.*.*.*.$.~ ( ~ G G J G N s %                                                                       s S G J G K D F F D *.*.*.*.",
"*.*.*.*.$.B ( X.O.%.%.O. .C %                                                                       n _ ......| ( ( K V *.*.*.*.",
"*.*.*.*.$.F { | {  ....._ B %                                                                       B _ ] ( ` { o.X.~ n *.*.*.*.",
"R z z z | G }  .o.o.o.{ ) M %                                                                       M / / / { @.@.{ ~ m X.X.X.X.",
"z z z z } J [ o.O.O.o.] ) M %                                                                       B  .[ ` ..@.@.{ / B X.X.X.X.",
"z z z z | U ..o.o.O.{ ` / B %                                                                       N ..o.{ o.o.{ [ ^ M X.X.X.X.",
"z z z z | G [ ..o.o.o.] / M %                                                                       M  .+.o.o.o.{ [ ! N X.X.X.X.",
"z z z z [ D ] ......[ ) W m %                                                                       n [ o.o. .O...( U V X.X.X.X.",
"z z z z | A / ] ` ) / ~ U m %                                                       .               g U _ _ _ _ / U A c X.X.X.X.",
"z z z z X.V J U H G U U H g %                               .   . X X X . . . . . . . . . X X X o . s D U U U J D N M m X.X.X.X.",
"z z z z | ~ ~ K G U _ _ ^ M %                       . . X X X o o o o o o o o o o O o O O O O O O @ g ~ _ _ W U V V V S X.X.X.X.",
"z z z z | | | ~ ~ ^  ...[ C %               . . . X X X o X o o o o O o @ @ @ o @ @ @ $ O $ @ @ $ $ B  .....( ~ F K F K X.X.X.X.",
"z z z z | | | ( W / [  ._ C %           . . X X X o o o o o O O @ @ @ O # $ @ @ : # : : @ @ @ : - $ S  ...{ ^ ~ D K K K X.X.X.X.",
"z z z z | | | ~ ~ ) [ ] ) A %       . . X o o o o % o o o O @ # - $ - # : # # < , , : : : : $ 4 4 $ C } ..[ / ~ D K K F X.X.X.X.",
"z z R R | | | ~ ~ ]  .] ) C %   . . . o o o o o @ o @ $ $ > # $ - - 4 : : : 4 4 4 5 : 2 4 5 : 5 > > N _ [ [ ` ( D K K K X.X.X.X.",
"V V V A K K F D H ] [ ] / N % . . o o o o o O @ @ # - < < > $ 4 6 , > , 5 , 5 5 , 5 , , 9 2 , , < 5 B _ { { ] ~ V V V V F K K K ",
"V V V V F K K D G / ) / W M * o O o o o @ @ @ # = < < < $ 2 5 4 9 , 2 9 9 2 9 9 , , , 0 2 8 2 0 i 3 m ~ ] X.] K V V V V K K F K ",
"V V V V K F K D A J W K K h 1 % % % % % = - = < 4 > < , 2 2 9 8 6 7 x x x 7 7 p 8 8 0 v 7 0 8 v p g n U ( ( ~ F V V V V K K K K ",
"V V V V K K K D m m h m h s > * * - & + = - ; 5 9 7 2 0 i 6 p p y 8 b v 8 8 0 8 8 v v v 8 v 0 9 v v d g m m V V V V V V K F K F "
};
