/* XPM */
static char *result[] = {
/* columns rows colors chars-per-pixel */
"64 64 60 1 ",
"  c #152734",
". c #152834",
"X c #152835",
"o c #162835",
"O c #162935",
"+ c #162A35",
"@ c #162A36",
"# c #172A36",
"$ c #172B36",
"% c #172C36",
"& c #172C37",
"* c #172D37",
"= c #182D37",
"- c #182E37",
"; c #182D38",
": c #182E38",
"> c #182F38",
", c #192F38",
"< c #182F39",
"1 c #192F39",
"2 c #193039",
"3 c #193139",
"4 c #1A3139",
"5 c #19313A",
"6 c #1A313A",
"7 c #19323A",
"8 c #1A323A",
"9 c #1A333A",
"0 c #1A323B",
"q c #1A333B",
"w c #1B333B",
"e c #1B343B",
"r c #1B353B",
"t c #1B343C",
"y c #1B353C",
"u c #1B363C",
"i c #1C353C",
"p c #1C363C",
"a c #1C363D",
"s c #1C373D",
"d c #1D373D",
"f c #1D373E",
"g c #1C383D",
"h c #1C383E",
"j c #1D383E",
"k c #1D393E",
"l c #1D3A3E",
"z c #1D3A3F",
"x c #1E3A3F",
"c c #1E3B3F",
"v c #1E3C40",
"b c #1F3C40",
"n c #1E3D40",
"m c #1F3D40",
"M c #1F3D41",
"N c #1F3E41",
"B c #1F3F41",
"V c #203F41",
"C c #203F42",
"Z c #204042",
/* pixels */
" ZZ  Z $  CzkZZ ZZZ.am@ZZZ evZZ.ay@CZ  Z2l8 CZ  Z:<N Z  ZZs2Z  Z",
" Z  ZZ ZnZv<ZZ8 CZ  Z% CZ  Z&8X Z= Z  ZZs=N Z  ZZs$Z   ZcZZOq ZZ",
"   ZZZZZZ&96NqN Z  ZZs$Z. ZZs$8ZZs$2 ZcZZ Z   ZcZZ y Z ZZ Z  ZcZ",
" Z ZZ ZZ 2 OqOZ   ZcZZ s ZcZZ ZsZZ Z ZZ Z   Z ZZ Z  NZ Zm   cZZ ",
"ZZ Z  Z  Z ZZ   Z ZZ Z $ ZZ Z Oj Z & Zm   cZZ Zm   ZlZ  Z  ZvZm ",
"ZZ      ZZZeZ  ZZ Zm   Z Zm   Zw   Z  Z  ZZZZ  Z  ZZk  :  ZZl Z ",
"Z  ZZZ ZZ>Z8  ZZZ  Z  ZZ  Z  ZCe  ZN :  ZZZZ  :  ZZZ  ZZ  ZZ :  ",
"  ZZZ  ZZ Zk  ZZ  :  ZZn :  ZZV  ZZvkZ  ZZ:  ZZ  ZZ .ZZZZ Z pZ  ",
" ZZZ&      kZ Z  ZZ  ZZ NZ  ZZOO ZZ&NZZ Z   ZZZZ Z 6Z      >ZZZ ",
"N azm &:Z8@8    ZZZZ Z 8ZZZ Z 2Z Z  o     ZZ       ZZZ ZZ.Z&    ",
"Z+CZ  Z o:>ZZ ZZ      $:      2   &Z ZZ B:ZZZ ZZ C3 ZZ Zv2ZZ ZZ ",
"Z Z  ZZ ZZN8j ZZZ ZZ ZZZ ZZ Z8ZZ cZZ ZZ=bO ZZ ZZ&8tt Z:$1.ZZ ZV ",
"Z   ZZZZZZ @8@ ZZ ZN 1ZZ ZN=ZOZZOk;ZOo1vZ:Z&M$ vo Zm&&jOZZ:v$:6s",
"  Z ZZ ZZ  $>8C c&5m9m5c 5b,c& :.ZZZZZZ c&5m.Z   Z6Zrpd. ZZ ZZ Z",
" ZZ Z  Z  ZZq& qs2y mZ    ZZ   Z ZZ ZZ    ZZ   Z Z6ZkO7ZZ C  8kZ",
"ZZZ 25  @ZZZ  ZZ Z  Z  ZZZ Z  ZZ Z  Z  ZZZ Z  ZZ Z  kZ Z  ZZ  ZZ",
"Zs mZZO 1ZZ sZZZ      ZZZ    ZZZ      ZZZ    ZZZ  >X8    ZZZZ Z ",
"Zm ZZ  Z O myZZ  ZZZ ZZZ ZZZ ZZ  ZZZ ZZZ ZZZ ZZ  Zm*ZZ ZZ       ",
"mZ Z  ZZ ZNZ6Z  ZZZ  ZZ ZZZ  Z  ZZZ ZZZ ZZZ  Z  ZZZ 1j ZZZ ZZ CZ",
" Z   ZZZZZZ    ZZZ      ZZ     ZZZ      ZZ     ZZZ  1j. ZZ ZZ jZ",
"   Z ZZ ZZ   ZZ     ZZZ   ZZ ZZ     ZZZ   ZZ ZZ    &$y6k VXOxy Z",
"  ZZ Z  Z  ZkZZZ ZZ  ZZZ ZZZ ZZZ ZZ  ZZZ ZZZ ZZZ ZZ& ZZ ZZ      ",
" ZZZ==  . ZZm ZZ ZZZ  ZZ ZZ   ZZ ZZZ  ZZ ZZ   ZZ ZZZN2k ZZZ ZZ C",
" zqcvZ#& ZZZ@Z Z  ZZZ  Z Z     Z  ZZZ  Z Z  Z  Z  ZuZe1 oZZ ZZ p",
">Z ZZ  Z $p ZZZ  Z        Z ZZ  ZZ   ZZZ   ZZ    Z uZko&Z>v O8oN",
"cZ Z  ZZ Zm5sZZ ZZ  ZZZ  ZZ ZZZ ZZZ ZZZ   ZZZ   ZZ .XkZ Z  ZZ  Z",
" Z   ZZZZZZ 0 ZZZZ ZZZ  ZZZ  ZZ  ZZ ZZ   ZZZ   ZZZ s 8    ZZZZ Z",
"   Z ZZ ZZ o4Z ZZ  ZZ  ZZZ    Z   Z Z       ZZ ZZ ON ZZ ZZ      ",
"  ZZ Z  Z  ZZZ Z Z    ZZZ  ZZZ  ZZ   ZZZ ZZ ZZZ   ZZc:j ZZZ ZZ Z",
" ZZZ      ZZvZ   ZZ  ZZZ  ZZZ  ZZZ  ZZZ  ZZZ ZZZ ZZ+Zyq  ZZ ZZ x",
" ZZ  ZZZ ZZZ   Z ZZZ ZZ   ZZ   ZZ  ZZZ    ZZ     Zz Zk$2ZOV .iOk",
" 2 >ZZZ  ZZ x ZZ  ZZZ  ZZZ  ZZ Z   ZZ  ZZZ Z  ZZ Z . kZ Z  ZZ  Z",
" Z &6m      kZZZ      ZZZ   ZZZ    Z  ZZZ    ZZZ  -y 8    ZZZZ Z",
"ZZ ZVs  ZZZ  ZZ  ZZZ ZZZ ZZZ ZZ ZZ   ZZZ ZZZ ZZ  ZZ $ZZ ZZ      ",
"ZZZZZ.3o sZZ Z  ZZZ ZZZ ZZZ   Z ZZZ  ZZ ZZZ  Z  ZZZZ,:j ZZZ ZZ j",
"Z ZZ    Z *$   ZZZ      ZZ Z     ZZZ    ZZ     ZZZ Zq2tO ZZ Zm Z",
"  Z  ZZZZ ZZ8VZ      ZZ   ZZ ZZ      ZZ   ZZ ZZ    Zk.&ZZ vO :NZ",
"    ZZZ>ZZZZ pZZ ZZ  ZZZ ZZZ ZZZ ZZ  ZZZ ZZZ ZZZ Zp kZ Z  ZZ  ZZ",
"ZZ ZZZ Z ZZ   cZ ZZZ  ZZ ZZ   ZZ ZZZ  ZZ ZZ   ZZ ZZ=8    ZZZZ Z ",
"Z  ZZ Zc Z  ZB5Z  ZZZ  Z Z  Z  Z  ZZZ  Z Z     Z  BeNZ ZZ      +",
"      Zs   ZZZq  Z         ZZ    Z ZZZ     ZZ    Z Zej ZZZ ZZ N9",
"8 sZZ +yZ ZZZ Z ZZ  ZZZ   ZZZ  Z ZZ ZZZ   ZZZ   ZZ  Zi  ZZ ZB$9@",
"Z  +ZZk5  ZZ ZZZZZ ZZZ   ZZZ  ZZ ZZZ ZZZ ZZZ   ZZZ  Zk=e>Z  eo Z",
"  Z  $  Z    ZqZZ  ZZ  Z     ZZZ  ZZ        ZZ ZZ o&OkZ Z  ZZ  Z",
" ZZ ZZcjZ ZZ:@ Z Z    ZZ ZZ  ZZ      ZZZ ZZ ZZZ   ew>8    ZZZZ Z",
"ZZZZZZ 1ZZZZ;:$  ZZ  ZZZ ZZZ    ZZ  ZZZ  ZZZ ZZZ Z@O:NZ ZZ      ",
"ZZ ZZ  + ZZ    Z ZZZ ZZ   ZZ    ZZZ ZZ    ZZ     Z ZZOa ZZZ ZZ C",
"Z  Z  ZZeZ  ZxZZ  ZZZ  ZZZ Z  ZZ ZZZ   ZZZ Z  ZZ ZZeZ@1&oZZ ZC C",
"     ZZZ   ZZZkZ      ZZZ    ZZZ      ZZZ    ZZZ  Z8  ZZZ v$ 6kN",
"ZZZ ZZZ Z ZZZOZ  ZZZ ZZZ ZZZ ZZ  ZZZ ZZZ ZZZ ZZ  3Zk  ZZ  :  ZZZ",
"ZZ  ZZ Ze ZZ Z1 ZZZ ZZZ ZZZ  Z  ZZZ ZZZ ykZ  Z  Zq kZ Z  ZZ  ZZ ",
"Z      B8   5N#kZZ      ZZ68  $XZZ8 CZ  Z$ ukc 6yZ@8    ZZZZ Z  ",
"   ZZZ  5a1ZBCX  8.  ZZ  NZZ O:6NqN Z  ZZs$ZZ oZ m8BZ ZZ       Z",
"ZZ  ZZZ+8m ZZ  Z ozsc:hB ZZ  Z OqOZ   ZcZZ Z  ZZ Z :f ZZZ ZZ lZZ",
"ZZZ  ZZ ZZ Z  ZZy&ZZ. ZZ Z  ZZ ZZ   Z ZZ Z   Z&Z   Zv  ZZ ZZ =ZZ",
" ZZV1aZZ Z   ZNZZ Z ;Z Z   ZZZZeZ:yZ&xZN   Z ZX  Z jO&8 Z:8;    ",
"y t vZeZ   Z ZZ Z   ZZ   Z ZZ Z3ycZ ZZZ+5&ZZ Z  ZZ Zs ZZ     ZZZ",
" ZZ Z  Z  ZZ Zc   Z 2Z  ZZ Z  N<VZ8 CZ  Z,gZ   ZZZ.a2 ZZZ ZZ  ZZ",
"ZZZ      ZZZ  Z  ZZ $  ZZZ    $6NqN Z  ZZs,;=+ ZZ  Z  OZZ ZZZ  Z",
"ZZ  ZZZ  ZZ  5  ZZZ v  ZZ  ZZZ OqOZ   ZcZZ eVZ Z  z@ ZZ&B  ZZC$8",
"Z  ZZZsZ Z  ZZ  ZZ  ZZ Z  ZZZe ZZ   Z ZZ Z &c&   ZZ+ ZZ; 1Z$ 6jB",
"  ZZZ      ZZZZ Z  Z8X   ZZZ aZeZ  ZZ Zm   v.p ZZ =c Z  ZZZ  ZZ ",
"ZZ    :Z ZZ       ZZZv ZZ     Z8  ZZZ  Z  ZZ Z@ZZZ =   ZZZ      ",
"ZZZ ZZ.eOZZZ ZZ ZZ  Xe ZZZ ZZ Zk  ZZ  :  ZZZ Vy@ZZ.Z.ZZ     ZZZ "
};
