/* XPM */
static char *result[] = {
/* columns rows colors chars-per-pixel */
"64 64 92 1 ",
"  c #152734",
". c #152834",
"X c #152835",
"o c #162835",
"O c #162935",
"+ c #162A35",
"@ c #162A36",
"# c #172A36",
"$ c #172B36",
"% c #172C36",
"& c #172C37",
"* c #172D37",
"= c #182D37",
"- c #182E37",
"; c #182D38",
": c #182E38",
"> c #182F38",
", c #192F38",
"< c #182F39",
"1 c #192F39",
"2 c #1E2F3B",
"3 c #193039",
"4 c #193139",
"5 c #1A3139",
"6 c #19313A",
"7 c #1A313A",
"8 c #19323A",
"9 c #1A323A",
"0 c #1A333A",
"q c #1A323B",
"w c #1A333B",
"e c #1B333B",
"r c #1B343B",
"t c #1B353B",
"y c #1B343C",
"u c #1B353C",
"i c #1B363C",
"p c #1C353C",
"a c #1C363C",
"s c #1C363D",
"d c #1C373D",
"f c #1D373D",
"g c #1D373E",
"h c #1C383D",
"j c #1C383E",
"k c #1D383E",
"l c #1D393E",
"z c #1D3A3E",
"x c #1D3A3F",
"c c #1E3A3F",
"v c #1E3B3F",
"b c #333C3F",
"n c #713030",
"m c #1E3C40",
"M c #1F3C40",
"N c #1E3D40",
"B c #1F3D40",
"V c #1F3D41",
"C c #1F3E41",
"Z c #1F3F41",
"A c #203F41",
"S c #203F42",
"D c #204042",
"F c #3C494D",
"G c #2E4453",
"H c #4B4747",
"J c #4B4B4B",
"K c #414E53",
"L c #445358",
"P c #4C5A5F",
"I c #515151",
"U c #5C5959",
"Y c #5D5D5D",
"T c #56666C",
"R c #586A71",
"E c gray40",
"W c #6E6B6B",
"Q c gray46",
"! c #7C7C7C",
"~ c #883636",
"^ c #667980",
"/ c #838282",
"( c #888888",
") c gray61",
"_ c #9E9D9D",
"` c #929CA0",
"' c #A0A0A0",
"] c gray64",
"[ c #A4AEB2",
"{ c gray71",
"} c gray76",
"| c gray79",
/* pixels */
" DD  D $  SxlDD DDD.sB@DDD rmDD.su@SD  D3z9 SD  D:<C D  DDd3D  D",
" D  DD DNDm<DD9 SD  D% SD  D&9X D= D  DDd=C D  DDd$D   DvDDOw DD",
"   DDDDDD&07CwC D  DDd$D. DDd$9DDd$3 DvDD D   DvDD u D DD D  DvD",
" D DD DD 3 OwOD   DvDD d DvDD DdDD D DD D   D DD D  CD DB   vDD ",
"DD D  D  D DD   D DD D $ DD D Ok D & DB   vDD DB   DzD  D  DmDB ",
"DD      DDDrD  DD DB   D DB   De   D  D  DDDD  D  DDl  :  DDz D ",
"D  DDD DD>D9  DDD  D  DD  D  DSr  DC :  DDDD  :  DDD  DD  DD :  ",
"  DDD  DD Dl  DD  :  DDN :  DDA  DDmlD  DD:  DD  DD .DDDD D aD  ",
" DDD&      lD D  DD  DD CD  DDOO DD&CDD D   DDDD D 7D      >DDD ",
"C sxB &:D9@9    DDDD D 9DDD D 3D D  o     DD       DDD DD.D&    ",
"D+SD  D o:>D||DD      $:      3   &D DD Z:DDD DD S4 DD Dm3DD DD ",
"D D  DD DDC9k|||D DD DDD DD D9DD vDD DD=MO DD DD&9yy D:$1.DD DA ",
"D   DDDDDD @9@ |||DC 1DD DC=DODDOl;DOo1mD:D&V$ mo DB&&kODD:m$:7d",
"  D DD DD  $>9S ||||0B6v 6M,v& :.DDDDDD v&6B.D   D7Dtaf. DD DD D",
" DD D  D  DDw& wd3||||    DD   D DD DD    DD   D D7DlO8DD S  9lD",
"DDD 36  @DDD  DD D  |(||DD D  DD D  D  DDD D  DD D  lD D  DD  DD",
"Dd BDDO 1DD dDDD     ||(|||  D___     DDD    DDD  >X9    DDDD D ",
"DB DD  D O BuDD  DDD DD}(((}}_(___DD DDD DDD DD  DB*DD DD       ",
"BD D  DD DCD7D  DDD  DD ||((_((((__ DDD DDD  D  DDD 1k DDD DD SD",
" D   DDDDDD    DDD      DD|_((((((__    DD     DDD  1k. DD DD kD",
"   D DD DD   DD     DDD   ]((HH(((((_DD   DD DD    &$u7l AXOcu D",
"  DD D  D  DlDDD DD  DDD D]((__HH((((DDDPDDD DDD DD& DD DD      ",
" DDD==  . DDB DD DDD  DD D]((((__HHH(||DPDD   DD DDDC3l DDD DD S",
" xwvmD#& DDD@D D  DDD  D DY((W(((((((((PFD  D  D  DiDr1 oDD DD a",
">D DD  D $a DDD  D        DYYY(W'/(|((PPF  DD    D iDlo&D>m O9oC",
"vD D  DD DB6dDD DD  DDD  DD~~~YYQW~{|(PPPEEEE   DD .XlD D  DD  D",
" D   DDDDDD q DDDD DDD  DDD))~~~YY~UE!PFFJJJE  DDD d 9    DDDD D",
"   D DD DD o5D DD  DD  DD)))E^~~~~~UEE!  EJJPD DD OC DD DD      ",
"  DD D  D  DDD D D    DD)))EE^^^~~^UUE!DEEJFPPP   DDv:k DDD DD D",
" DDD      DDmD   DD  DD)))EPP^^^^^^{UEE!EJJDFFFD DD+Duw  DD DD c",
" DD  DDD DDD   D DDD))I)EEDGPP^^P^^{{UJJEJDD     Dx Dl$3DOA .pOl",
" 3 >DDD  DD c DD  DD))IEDD GGPPPPPP{{UEEJD D  DD D . lD D  DD  D",
" D &7B      lDDD   )IIIDD  GG~PPPP{{  UUD    DDD  -u 9    DDDD D",
"DD DAd  DDD  DD  D)))EDD DDGG~~~GD   DDD DDD DD  DD $DD DD      ",
"DDDDD.4o dDD D  )E))EED DDDG2~~n2[[  DD DDD  D  DDDD,:k DDD DD k",
"D DD    D *$  ))EEEEE   [``2nnn2[[[[[[[[DD     DDD Dw3yO DD DB D",
"  D  DDDD DD9E)EEEE  DD[[[```nn`b``````[[[DD DD    Dl.&DD mO :CD",
"    DDD>DDDD)E)E))D  D[[[``bTT^KKbbbbbb``[[D DDD Da lD D  DD  DD",
"DD DDD D DD E)EE))DD  [[```bTT^^PKKKKKKbb`[[  DD DD=9    DDDD D ",
"D  DD Dv D  D)EE) DDD[[```bTTT^^PPPPPPPPPbb`[  D  ZrCD DD      +",
"      Dd   DDDw  D   [[```bTT^ KKKPPPPPPPPKb[    D Drk DDD DD C0",
"9 dDD +uD DDD D DD  [[```bTTT  DKKKKKPPPPPPPb   DD  Dp  DD DZ$0@",
"D  +DDl6  DD DDDDD D[[[``bTTT DD DKKKKKKKPPbPPPDDD  Dl=r>D  ro D",
"  D  $  D    DwDD  D[[``bTTT DDD  DD  KKKbbPPPPPD o&OlD D  DD  D",
" DD DDvkD DD:@ D D [[```bTT  DD      DDD Dbbbbbb  re>9    DDDD D",
"DDDDDD 1DDDD;:$  DD[[``bTTDD    DD  DDD  DDKKKPPPD@O:CD DD      ",
"DD DD  + DD    D D[[``bTT DD    DDD DD    DDKKKPPD DDOs DDD DD S",
"D  D  DDrD  DcDD  [``bTTDD D  DD DDD   DDD DKKKPPDDrD@1&oDD DS S",
"     DDD   DDDlD^^bTTbTDD    DDD      DDD    KKPP D9  DDD m$ 7lC",
"DDD DDD D DDDOD^^^RbbbDD DDD DD  DDD DDD DDD KKPP4Dl  DD  :  DDD",
"DD  DD Dr DD D^^^^RRRDD DDD  D  DDD DDD ulD  DKKPP lD D  DD  DD ",
"D      Z9   6^^TTT      DD79  $XDD9 SD  D$ ilv KKP@9    DDDD D  ",
"   DDD  6s1D^TTTT9.  DD  CDD O:7CwC D  DDd$DD oDKP9ZD DD       D",
"DD  DDD+9B DbbbD oxdv:jZ DD  D OwOD   DvDD D  DDKPP:g DDD DD zDD",
"DDD  DD DD ^TTTDu&DD. DD D  DD DD   D DD D   D&D bbDm  DD DD =DD",
" DDA1sDD D^^TTCDD D ;D D   DDDDrD:uD&cDC   D DX  LPPO&9 D:9;    ",
"u y mDrD ^^TTDD D   DD   D DD D4uvD DDD+6&DD D  DLLPP DD     DDD",
" DD D  D^^^T Dv   D 3D  DD D  C<AD9 SD  D,hD   DDLLLPPDDD DD  DD",
"DDD     TTTT  D  DD $  DDD    $7CwC D  DDd,;=+ DDLLLLPPDD DDD  D",
"DD  DDD  DD  6  DDD m  DD  DDD OwOD   DvDD rAD D  x@ DD&Z  DDS$9",
"D  DDDdD D  DD  DD  DD D  DDDr DD   D DD D &v&   DD+ DD; 1D$ 7kZ",
"  DDD      DDDD D  D9X   DDD sDrD  DD DB   m.a DD =v D  DDD  DD ",
"DD    :D DD       DDDm DD     D9  DDD  D  DD D@DDD =   DDD      ",
"DDD DD.rODDD DD DD  Xr DDD DD Dl  DD  :  DDD Au@DD.D.DD     DDD "
};
