/* XPM */
static char *result[] = {
/* columns rows colors chars-per-pixel */
"64 64 93 2 ",
"   c #152734",
".  c #152834",
"X  c #152835",
"o  c #162835",
"O  c #162935",
"+  c #162A35",
"@  c #162A36",
"#  c #172A36",
"$  c #172B36",
"%  c #172C36",
"&  c #172C37",
"*  c #172D37",
"=  c #182D37",
"-  c #182E37",
";  c #182D38",
":  c #182E38",
">  c #182F38",
",  c #192F38",
"<  c #182F39",
"1  c #192F39",
"2  c #1E2F3B",
"3  c #193039",
"4  c #193139",
"5  c #1A3139",
"6  c #19313A",
"7  c #1A313A",
"8  c #19323A",
"9  c #1A323A",
"0  c #1A333A",
"q  c #1A323B",
"w  c #1A333B",
"e  c #1B333B",
"r  c #1B343B",
"t  c #1B353B",
"y  c #1B343C",
"u  c #1B353C",
"i  c #1B363C",
"p  c #1C353C",
"a  c #1C363C",
"s  c #1C363D",
"d  c #1C373D",
"f  c #1D373D",
"g  c #1C383D",
"h  c #1C383E",
"j  c #1D383E",
"k  c #1D393E",
"l  c #1D3A3E",
"z  c #1D3A3F",
"x  c #1E3A3F",
"c  c #1E3B3F",
"v  c #333C3F",
"b  c #713030",
"n  c #1E3C40",
"m  c #1F3C40",
"M  c #1E3D40",
"N  c #1F3D40",
"B  c #1F3D41",
"V  c #1F3E41",
"C  c #1F3F41",
"Z  c #203F41",
"A  c #203F42",
"S  c #204042",
"D  c #3C494D",
"F  c #2E4453",
"G  c #4B4747",
"H  c #4B4B4B",
"J  c #414E53",
"K  c #445358",
"L  c #4C5A5F",
"P  c #515151",
"I  c #5C5959",
"U  c #5D5D5D",
"Y  c #56666C",
"T  c #586A71",
"R  c gray40",
"E  c #6E6B6B",
"W  c gray46",
"Q  c #7C7C7C",
"!  c #883636",
"~  c #667980",
"^  c #838282",
"/  c #888888",
"(  c gray61",
")  c #9E9D9D",
"_  c #929CA0",
"`  c #A0A0A0",
"'  c gray64",
"]  c #A4AEB2",
"[  c gray71",
"{  c gray76",
"}  c gray79",
"|  c #E2E2E2",
" . c #F6F4F4",
/* pixels */
"  S S     S   $     A z k S S   S S S . s N @ S S S   r n S S . s u @ A S     S 3 l 9   A S     S : < V   S     S S d 3 S     S ",
"  S     S S   S M S n < S S 9   A S     S %   A S     S & 9 X   S =   S     S S d = V   S     S S d $ S       S c S S O w   S S ",
"      S S S S S S & 0 7 V w V   S     S S d $ S .   S S d $ 9 S S d $ 3   S c S S   S       S c S S   u   S   S S   S     S c S ",
"  S   S S   S S   3   O w O S       S c S S   d   S c S S   S d S S   S   S S   S       S   S S   S     V S   S N       c S S   ",
"S S   S     S     S   S S       S   S S   S   $   S S   S   O j   S   &   S N       c S S   S N       S l S     S     S n S N   ",
"S S             S S S r S     S S   S N       S   S N       S e       S     S     S S S S     S     S S k     :     S S l   S   ",
"S     S S S   S S > S 9     S S S     S     S S     S     S A r     S V   :     S S S S     :     S S S     S S     S S   :     ",
"    S S S     S S   S k } } S S     :     S S M   :     S S Z     S S n k S     S S :     S S     S S   . S S S S   S   a S     ",
"  S S S &             k S } } }   S S     S S   V S     S S O O   S S & V S S   S       S S S S   S   7 S             > S S S   ",
"V   s z N   & : S 9 @ 9       } } } S S   S   9 S S S   S   3 S   S     o           S S               S S S   S S . S &         ",
"S + A S     S   o : > S S   S S } } } }     $ :             3       & S   S S   C : S S S   S S   A 4   S S   S n 3 S S   S S   ",
"S   S     S S   S S V 9 j   S S S   } } } } S S   S S   S 9 S S   c S S   S S = m O   S S   S S & 9 y y   S : $ 1 . S S   S Z   ",
"S       S S S S S S   @ 9 @   S S   S V } / } }   S V = S O S S O k ; S O o 1 n S : S & B $   n o   S N & & j O S S : n $ : 7 d ",
"    S   S S   S S     $ > 9 A   c & 6 N 0 } } / } } } , c & ) ) ) S S S S S S   c & 6 N . S       S 7 S t a f .   S S   S S   S ",
"  S S   S     S     S S w &   w d 3 u   N S   { / / / { { ) / ) ) ) S   S S         S S       S   S 7 S k O 8 S S   A     9 k S ",
"S S S   3 6     @ S S S     S S   S     S     S } } / / ) / / / / ) )   S     S S S   S     S S   S     k S   S     S S     S S ",
"S d   N S S O   1 S S   d S S S             S S S   } ) / / / / / / ) )     S S S         S S S     > X 9         S S S S   S   ",
"S N   S S     S   O   N u S S     S S S   S S S   S ' / / G G / / / / / ) S S S   S S S   S S     S N * S S   S S               ",
"N S   S     S S   S V S 7 S     S S S     S S   S S ' / / ) ) G G / / / / S S   L S S     S     S S S   1 j   S S S   S S   A S ",
"  S       S S S S S S         S S S             S S ' / / / / ) ) G G G |  .}   L S           S S S     1 j .   S S   S S   j S ",
"      S   S S   S S       S S           S S S       U / / E / / / / / / [  . .L D   S S   S S         & $ u 7 k   Z X O x u   S ",
"    S S   S     S     S k S S S   S S     S S S   S S U U U / E ` ^ / [ | | |  .D S S  .  S S S   S S &   S S   S S             ",
"  S S S = =     .   S S N   S S   S S S     S S   S S ! ! ! U U W E ! [ [ | |  . .R R R R   S S   S S S V 3 k   S S S   S S   A ",
"  z w c n S # &   S S S @ S   S     S S S     S   S   ( ( ! ! ! U U ! I R Q [ | [ H H H R     S     S i S r 1   o S S   S S   a ",
"> S   S S     S   $ a   S S S     S               ( ( ( R ~ ! ! ! ! ! I R R Q | [ R H H L         S   i S k o & S > n   O 9 o V ",
"c S   S     S S   S N 6 d S S   S S     S S S   ( ( ( R R ~ ~ ~ ! ! ~ I I R Q [ R R H D L L L   S S   . X k S   S     S S     S ",
"  S       S S S S S S   q   S S S S   S S S   ( ( ( R L L ~ ~ ~ ~ ~ ~ [ I R R Q R H H S D D D S S S   d   9         S S S S   S ",
"      S   S S   S S   o 5 S   S S     S ( ( P ( R R   F L L ~ ~ L ~ ~ [ [ I H H R H     S S   S S   O V   S S   S S             ",
"    S S   S     S     S S S   S   S     ( ( P R S     F F L L L L L L [ [ I R R H S S   S S S       S S c : j   S S S   S S   S ",
"  S S S             S S n S       S S ( P P P S     S F F ! L L L L [ [ S [ I I   S S S   S S S   S S + S u w     S S   S S   x ",
"  S S     S S S   S S S       S   S ( ( ( R S       S F F ! ! ! F     S S S         S S           S z   S k $ 3 S O Z   . p O k ",
"  3   > S S S     S S   x   S S ( R ( ( R R   S S S   F 2 ! ! b 2 ] ] S S     S S S   S     S S   S   .   k S   S     S S     S ",
"  S   & 7 N             k S S ( R R R R R   S S ] _ _ 2 b b b 2 ] ] ] ] ] ] ] ] S         S S S     - u   9         S S S S   S ",
"S S   S Z d     S S S     S ( ( R R R S   S S ] ] ] _ _ _ b b _ v _ _ _ _ _ _ ] ] ] S S   S S     S S   $ S S   S S             ",
"S S S S S . 4 o   d S S   R ( ( ( S S   S S ] ] ] _ _ v Y Y ~ J J v v v v v v _ _ ] ]     S     S S S S , : j   S S S   S S   j ",
"S   S S         S   * $   R R ( R S         ] ] _ _ _ v Y Y ~ ~ L J J J J J J v v _ ] ]       S S S   S w 3 y O   S S   S N   S ",
"    S     S S S S   S S 9 Z R R (         ] ] _ _ _ v Y Y Y ~ ~ L L L L L L L L L v v _ ] S S         S k . & S S   n O   : V S ",
"        S S S > S S S S   a S S   S S     ] ] _ _ _ v Y Y ~ S J J J L L L L L L L L J v ] S S S   S a   k S   S     S S     S S ",
"S S   S S S   S   S S       c S   S S S ] ] _ _ _ v Y Y Y   S S J J J J J L L L L L L L v   S S   S S = 9         S S S S   S   ",
"S     S S   S c   S     S C 6 S     S S ] ] ] _ _ v Y Y Y     S     J J J J J J J L L v L L L S     C r V S   S S             + ",
"            S d       S S S w     S     ] ] _ _ v Y Y Y S         S   S S S J J J v v L L L L L   S   S r j   S S S   S S   V 0 ",
"9   d S S   + u S   S S S   S   S S   ] ] _ _ _ v Y Y S S     S   S S   S S S       v v v v v v S S     S p     S S   S C $ 0 @ ",
"S     + S S k 6     S S   S S S S S   ] ] _ _ v Y Y S S     S S   S S S   S S S   S S J J J L L L S     S k = r > S     r o   S ",
"    S     $     S         S w S S   ] ] _ _ v Y Y         S S S     S S                 J J J L L   o & O k S   S     S S     S ",
"  S S   S S c j S   S S : @   S   S ] _ _ v Y Y   S S     S S             S S S   S S   J J J L L   r e > 9         S S S S   S ",
"S S S S S S   1 S S S S ; : $   ~ ~ v Y Y v Y S   S S S         S S     S S S     S S S   J J L L S @ O : V S   S S             ",
"S S   S S     +   S S         ~ ~ ~ T v v v S       S S         S S S   S S         S S   J J L L S   S S O s   S S S   S S   A ",
"S     S     S S r S     S x ~ ~ ~ ~ T T T     S S S   S     S S   S S S       S S S   S     J J L L S r S @ 1 & o S S   S A   A ",
"          S S S       S S ~ ~ Y Y Y         S S S         S S S             S S S         S S J J L S 9     S S S   n $   7 k V ",
"S S S   S S S   S   S S ~ Y Y Y Y S S S   S S S   S S S   S S     S S S   S S S   S S S   S S   J L S k     S S     :     S S S ",
"S S     S S   S r   S S v v v   S S S   S S S   S S S     S     S S S   S S S   u k S     S     J L L k S   S     S S     S S   ",
"S             C 9     ~ Y Y Y k S S             S S 7 9     $ X S S 9   A S     S $   i k c   7 u v v 9         S S S S   S     ",
"      S S S     6 s ~ ~ Y Y X     9 .     S S     V S S   O : 7 V w V   S     S S d $ S S   o S   K L L S   S S               S ",
"S S     S S S + 9 ~ ~ Y Y     S   o z d c : h C   S S     S   O w O S       S c S S   S     S S   K K L L   S S S   S S   l S S ",
"S S S     S S   ~ ~ ~ Y     S S u & S S .   S S   S     S S   S S       S   S S   S       S & S   K K K L L   S S   S S   = S S ",
"  S S Z 1 s S S Y Y Y Y   S V S S   S   ; S   S       S S S S r S : u S & x S V       S   S X     K K K K L L   S : 9 ;         ",
"u   y   n S r S       S   S S   S       S S       S   S S   S 4 u c S   S S S + 6 & S S   S     S S   S d   S S           S S S ",
"  S S   S     S     S S   S c       S   3 S     S S   S     V < Z S 9   A S     S , g S       S S S . s 3   S S S   S S     S S ",
"S S S             S S S     S     S S   $     S S S         $ 7 V w V   S     S S d , ; = +   S S     S     O S S   S S S     S ",
"S S     S S S     S S     6     S S S   n     S S     S S S   O w O S       S c S S   r Z S   S     z @   S S & C     S S A $ 9 ",
"S     S S S d S   S     S S     S S     S S   S     S S S r   S S       S   S S   S   & c &       S S +   S S ;   1 S $   7 j C ",
"    S S S             S S S S   S     S 9 X       S S S   s S r S     S S   S N       n . a   S S   = c   S     S S S     S S   ",
"S S         : S   S S               S S S n   S S           S 9     S S S     S     S S   S @ S S S   =       S S S             ",
"S S S   S S . r O S S S   S S   S S     X r   S S S   S S   S k     S S     :     S S S   Z u @ S S . S . S S           S S S   "
};
