/* XPM */
static char *result[] = {
/* columns rows colors chars-per-pixel */
"64 64 31 1 ",
"  c #B7874E",
". c #B7884E",
"X c #B8894F",
"o c #BB8E51",
"O c #BE9253",
"+ c #C19654",
"@ c #C49C56",
"# c #C09558",
"$ c #C39A5A",
"% c #C7A057",
"& c #C8A157",
"* c #C7A05D",
"= c #CAA55A",
"- c #CCA95B",
"; c #C7A160",
": c #C9A461",
"> c #CEAD62",
", c #CFAE69",
"< c #D0AF61",
"1 c #D0AF6A",
"2 c #D2B264",
"3 c #D4B569",
"4 c #D6B96B",
"5 c #D8BC6E",
"6 c #D5B770",
"7 c #D7BA71",
"8 c #D9BE71",
"9 c #DCC375",
"0 c #DEC679",
"q c #DFC87A",
"w c #E1CB7D",
/* pixels */
"------9www4---4wwwwwww9-----29wwwwwwwwwwwwwwq9-O...O=----29ww9<-",
"---=-<39992-<29wwwwwww93---<40wwwwwwwwwwwww09-&OOOo@=----90ww942",
"-==---<<<<--399wwwwwwww94-<99wwwwwwwwwwwww99-&OO%%%%=--299wwwq99",
"-------<----4wwwwwwwwwww9299wwwwwwwwwwwwwq09<&O%-----=-39wwwwwww",
"------392---9wwwwwwwwwwwq99wwwwwwwwwwwwwwww09<&--------3qwwwwwww",
"@&--<29w42229wwwwwwwwwwwq9999wwwwwwwwwwwwwww04---&---&%29wwwwwww",
"o+&<49ww99999wwwwwwwwwww922299qwwwwwwwwwwwq0q9-------%O:9wwwwwww",
".o-29wwwwwwwwwwwwwwwwwww92<--99wwwwwwwwwq0999<--<<<<<-%=4999wwww",
"XO29wwwwwwwwwwwwwwwwwwwwq94<-<59wwwwwwww09-<<--29990997,$*>4qqqq",
"$=9wwwwwwwww99wwwwwwwwwwq94<--<5099999999<---<29wwqwqwq4*%=29997",
"789wwwwwwwww429wwwwwwwww92<----,<222<2<<2----29qwwwwqww073--2,OO",
"wwwwwwwwwwww4-29qwwwq9994<-<2<1,<-------2---<9wwwwwwwwwwq9>--=OO",
"wqwwwwwwwwww4--290qw922<<-2908089------992-29qwwwwwwwwww09<--=%%",
"90qwwwwwwwww42229q093----<59wwww94<----499-99qwwwwwwwwww09<---=-",
"239wwwwwwwww99990w92----<990wwwww99---<9q094299qwwwwwwwww9<-----",
"230wwwwwww99wwwwqq92<-=&<0wwwwwwww99--<9ww04-999wwwwwww094--<22<",
"99qwwwwwqq529wwwwwq93-@O:0wwwwwwwwq092-9wwq4---9wqwwwww92--<9999",
"wwwwwq09992-5wwwwwww92=X;8wwwwwwwwww93-49qq2---209999994<--99qww",
"wwwww05222--5wwwwwww00>o;9wwwwwwwwqw92--29q4----2<22<2<<-<99qwww",
"wwwww02-----5wwwwwwwqw1o#68qwwwwwwq992---492------------<99qwwww",
"wwwww02-----8qwqwwwwww1OoO,0wwwwwqq4<-----2-----=------<90wwwwww",
"wwwww0522<--2799qwwwq9,OoX#19wwwqq92-=&--<222---=------49wwwwwww",
"wwwwww99992-$$=28qqw92>&Ooo#:9wwq4---OO&-49992---------20wwwwwww",
"wq09qwwwwq5>:$@&>7772---$OoX#1773=%-=%%-29wwq4----=--&-<0wwwwwww",
"w0439qwwwq0994*oOO$$&=--=&OooOOOOOO=<2799qwwq5---------40wwwwwww",
"w92>9wwwwwww09:OOOO$$-----&OOXOOooO=39qqwwwwq92---&----20wwwwwww",
"w92290wwwwwq42-&&&,62------@&&@&%%=4qqwwwwwwq093-----&-20wwwwwww",
"w942990wwq092-<2,>8w92>----<2222><>9qwwwwwwwqq92-------<99qwwwww",
"ww09229ww05<--2999qwq95---2599995<-9wqwwwwww09<----------9qwwwww",
"www9439wwq5<<-3wwqwwww7=--5qwwww0429qqwwq99992&&@&&&-----<9990ww",
"wwww09wwww092-4wwwwwww3O*79qwwwwq99229ww052<<%OoOOX@-------<-99w",
"wwwwwwwwwwww9<9wwwwwww1O;9wwwwwwwq04299992=%%O.OOO@&2<<-&&----99",
"wwwwwwwwwwwwq99wwwwwww1O*9wwwwwwwwq09222,--@oXX;7777999,O$---->2",
"9999990wwwwwwwwwwwwwq9>O=40wwwwwwwq99<---&@O.O$1wwwwwww6;$@-&---",
"<2<2249wwwwwwwwwwwww92-==240wwwwwwq5<----+oXX;70wwwwwwww7,O+=---",
"----<29wwwwwwwwwwwwq9222>-20wwwwww02--=-=OXO$3wwwwwwwwwww7$+-<2<",
"----999wwwwwqwwwwqwwq9994-49wwwwwq02-----Oo:70wwwwwwwwwww5->5999",
"<<249wwwww09999487799www8-2qwwwwq992--2<<$O1wwwwwwwwwwwww9>29www",
"9999qwwwwq9<<<-OO$:250wq9>2qwwww99<--5998>&4wwwwwwwwwwwww5>29www",
"wwwwwwwww02---@oOO+-29994-<999999--<39wqq3-59qwqwwwwwwwwq9229www",
"wwwwwwwww02---&&&&&--><<--<<<<22--<90qwwq3->29qqwwwwwwwww9229www",
"wwwwwwwww09<------------=------<<<29wwwwq42--49qwwwwwwwq94-250ww",
"wwwwwwwwwq092---=-------------<5999qwwwwqq92--<9wwwwwww92---<49w",
"wwwwwwwwwwwq9&------=----=--=&-9wwwwwwwwqq03@--2999998742222-259",
"wwwwwwwwwwww2-----&---=-----*O;7wwwwwwwwww0,o@--22222=$:5994--22",
"990wwwwwwwww4------------=@@+oO,9qwwwwwwww0:.O&==--=&$$,9ww94<--",
"249qwwwwwww04----&-----=$OOooooO=7wwwwwwwqq:.XO@---+O;49wwww94<-",
"--99wwwwwq09<-&-------&%OooO$#$$=40qwwq0098:O..O@--@O:0wwwww9522",
"--<490qwwq9-----------%OXX@,88775229qqq522>-@o.Xo+--&2wwwww94399",
"2<2299qww04-----------@XoO>9wwqw04299992--222-@+$&---40www95249w",
"99999<9ww02-----------@.$19qwwwwq99222<--499989472---29ww92399ww",
"www92<99992------2--&-@O:0wqwwwwww9>&=--29wwwqw992-=-2www9249www",
"wwwq099-<-------293----&19wwwwwwww9;O&-49qwwwww92----2wwww09wwww",
"wwwq99<-------<<9w9<<2<-<99qwwwwww7*O@<9wwwwwww4-<<22499wwwww099",
"wqw92<------4999qw00993--<5qwwwwqq9>=--9wwwwwww4-29994240wwww932",
"9999<-------9wwwwwqwqq93>=>9wwwwq082---59qwww99225www9250w9994<-",
"<2<<--------9wwwwwwwwwq01$*9wwwwq5<----<<9www9<99wwww99ww9222<--",
"------------4qwwwwwwwwww3O&5999w94<------99992<9wwwwwwwww93-----",
"------------9wwwwwwwwwww8=-<2239qq8<-----<22<290wwwwwwwww095----",
"-----<22<<--290wwwwwwwww8>-<2249qw95,<<<<----9wwwwwwwwwww095<---",
"----4999992--29wqqwqwqwq8<<9990wwwq099999<---4wwwwwwwwwww92-----",
"---<9wqqq99<--49990909994-29wwwwwwwwwwww99---499wwwwwww994<&----",
"---<9qwwwq092--2<2<<22<<<-2qwwwwwwwwwwwww992--<9wwwwwww92<-----&",
"---<9wwwwww04-------------20wwwwwwwwwwwwwww4---4wwwwwww9<-------"
};
