/* XPM */
static char *result[] = {
/* columns rows colors chars-per-pixel */
"32 32 6 1 ",
"  c #A8B8C0",
". c #809898",
"X c #587070",
"o c #485050",
"O c #303838",
"+ c #808070",
/* pixels */
"   .  ..       X   .  ..       X",
".XX    ...XXXXX..XX    ...XXXXX.",
"XX..  .XXo..XX. XX..  .XXo..XX. ",
"X.....XXo..XX.  X.....XXo..XX.  ",
"......XXo.XXX.  ......XXo.XXX.  ",
".....XXoXo....  .....XXoXo....  ",
"X....XXXo.    . X....XXXo.    . ",
".X..XXXo.       .X..XXXo.       ",
"..oXXXXo.       ..oXXXXo.       ",
"..oXXXXX..   .  ..oXXXXX..   .  ",
".XXXoX.X... ... .XXXoX.X... ... ",
"XXXXo...X....X. XXXXo...X....X. ",
"XXooo...X...XX  XXooo...X...XX  ",
"oooO.....XXXX.  oooO.....XXXX.  ",
"OOOo.....XX. .  OOOo.....XX. .  ",
"+oOo..XXX.   .  +oOo..XXX.   .  ",
"   .  ..       X   .  ..       X",
".XX    ...XXXXX..XX    ...XXXXX.",
"XX..  .XXo..XX. XX..  .XXo..XX. ",
"X.....XXo..XX.  X.....XXo..XX.  ",
"......XXo.XXX.  ......XXo.XXX.  ",
".....XXoXo....  .....XXoXo....  ",
"X....XXXo.    . X....XXXo.    . ",
".X..XXXo.       .X..XXXo.       ",
"..oXXXXo.       ..oXXXXo.       ",
"..oXXXXX..   .  ..oXXXXX..   .  ",
".XXXoX.X... ... .XXXoX.X... ... ",
"XXXXo...X....X. XXXXo...X....X. ",
"XXooo...X...XX  XXooo...X...XX  ",
"oooO.....XXXX.  oooO.....XXXX.  ",
"OOOo.....XX. .  OOOo.....XX. .  ",
"+oOo..XXX.   .  +oOo..XXX.   .  "
};
