/* XPM */
static char *result[] = {
/* columns rows colors chars-per-pixel */
"64 64 15 1 ",
"  c #4D5A35",
". c #536138",
"X c #677B3F",
"o c #4E4C4C",
"O c #5B5959",
"+ c #6A7F43",
"@ c #637049",
"# c #606060",
"$ c #676666",
"% c gray45",
"& c #797979",
"* c #79895B",
"= c #838383",
"- c #888888",
"; c #9B9B9B",
/* pixels */
";;;;oooo========XXXX@@@@====;;;;;;;;OOOO&&&&&&&&@@@@XXXX====;;;;",
";;;;oooo========XXXX@@@@====;;;;;;;;OOOO&&&&&&&&@@@@XXXX====;;;;",
";;;;oooo========XXXX@@@@====;;;;;;;;OOOO&&&&&&&&@@@@XXXX====;;;;",
";;;;oooo========XXXX@@@@====;;;;;;;;OOOO&&&&&&&&@@@@XXXX====;;;;",
"----OOOO====&&&&&&&&@@@@%%%%========OOOO====&&&&@@@@&&&&&&&&----",
"----OOOO====&&&&&&&&@@@@%%%%========OOOO====&&&&@@@@&&&&&&&&----",
"----OOOO====&&&&&&&&@@@@%%%%========OOOO====&&&&@@@@&&&&&&&&----",
"----OOOO====&&&&&&&&@@@@%%%%========OOOO====&&&&@@@@&&&&&&&&----",
"====ooooXXXX&&&&%%%%%%%%%%%%%%%%@@@@OOOOXXXX@@@@====&&&&&&&&&&&&",
"====ooooXXXX&&&&%%%%%%%%%%%%%%%%@@@@OOOOXXXX@@@@====&&&&&&&&&&&&",
"====ooooXXXX&&&&%%%%%%%%%%%%%%%%@@@@OOOOXXXX@@@@====&&&&&&&&&&&&",
"====ooooXXXX&&&&%%%%%%%%%%%%%%%%@@@@OOOOXXXX@@@@====&&&&&&&&&&&&",
"====oooo$$$$&&&&&&&&&&&&%%%%@@@@    oooo&&&&----============&&&&",
"====oooo$$$$&&&&&&&&&&&&%%%%@@@@    oooo&&&&----============&&&&",
"====oooo$$$$&&&&&&&&&&&&%%%%@@@@    oooo&&&&----============&&&&",
"====oooo$$$$&&&&&&&&&&&&%%%%@@@@    oooo&&&&----============&&&&",
"ooooooooooooOOOO$$$$OOOO    ooooooooooooOOOO    ....    OOOOoooo",
"ooooooooooooOOOO$$$$OOOO    ooooooooooooOOOO    ....    OOOOoooo",
"ooooooooooooOOOO$$$$OOOO    ooooooooooooOOOO    ....    OOOOoooo",
"ooooooooooooOOOO$$$$OOOO    ooooooooooooOOOO    ....    OOOOoooo",
"========;;;;oooo----++++****----;;;;----;;;;;;;;    --------====",
"========;;;;oooo----++++****----;;;;----;;;;;;;;    --------====",
"========;;;;oooo----++++****----;;;;----;;;;;;;;    --------====",
"========;;;;oooo----++++****----;;;;----;;;;;;;;    --------====",
"----&&&&====####++++@@@@&&&&&&&&&&&&&&&&%%%%====....%%%%&&&&&&&&",
"----&&&&====####++++@@@@&&&&&&&&&&&&&&&&%%%%====....%%%%&&&&&&&&",
"----&&&&====####++++@@@@&&&&&&&&&&&&&&&&%%%%====....%%%%&&&&&&&&",
"----&&&&====####++++@@@@&&&&&&&&&&&&&&&&%%%%====....%%%%&&&&&&&&",
"&&&&&&&&====####++++    &&&&&&&&&&&&&&&&%%%%====....%%%%&&&&&&&&",
"&&&&&&&&====####++++    &&&&&&&&&&&&&&&&%%%%====....%%%%&&&&&&&&",
"&&&&&&&&====####++++    &&&&&&&&&&&&&&&&%%%%====....%%%%&&&&&&&&",
"&&&&&&&&====####++++    &&&&&&&&&&&&&&&&%%%%====....%%%%&&&&&&&&",
"&&&&&&&&----OOOO    XXXX%%%%&&&&&&&&&&&&&&&&%%%%oooo@@@@XXXX&&&&",
"&&&&&&&&----OOOO    XXXX%%%%&&&&&&&&&&&&&&&&%%%%oooo@@@@XXXX&&&&",
"&&&&&&&&----OOOO    XXXX%%%%&&&&&&&&&&&&&&&&%%%%oooo@@@@XXXX&&&&",
"&&&&&&&&----OOOO    XXXX%%%%&&&&&&&&&&&&&&&&%%%%oooo@@@@XXXX&&&&",
"%%%%%%%%%%%%oooo$$$$%%%%&&&&%%%%%%%%%%%%&&&&&&&&OOOO%%%%%%%%%%%%",
"%%%%%%%%%%%%oooo$$$$%%%%&&&&%%%%%%%%%%%%&&&&&&&&OOOO%%%%%%%%%%%%",
"%%%%%%%%%%%%oooo$$$$%%%%&&&&%%%%%%%%%%%%&&&&&&&&OOOO%%%%%%%%%%%%",
"%%%%%%%%%%%%oooo$$$$%%%%&&&&%%%%%%%%%%%%&&&&&&&&OOOO%%%%%%%%%%%%",
"oooooooooooo    ooooOOOOOOOOOOOOOOOOOOOOoooooooooooooooooooooooo",
"oooooooooooo    ooooOOOOOOOOOOOOOOOOOOOOoooooooooooooooooooooooo",
"oooooooooooo    ooooOOOOOOOOOOOOOOOOOOOOoooooooooooooooooooooooo",
"oooooooooooo    ooooOOOOOOOOOOOOOOOOOOOOoooooooooooooooooooooooo",
"----====----;;;;====@@@@oooo----------------;;;;====;;;;OOOO----",
"----====----;;;;====@@@@oooo----------------;;;;====;;;;OOOO----",
"----====----;;;;====@@@@oooo----------------;;;;====;;;;OOOO----",
"----====----;;;;====@@@@oooo----------------;;;;====;;;;OOOO----",
"XXXX%%%%&&&&%%%%%%%%XXXXoooo%%%%%%%%&&&&%%%%XXXX&&&&----OOOO&&&&",
"XXXX%%%%&&&&%%%%%%%%XXXXoooo%%%%%%%%&&&&%%%%XXXX&&&&----OOOO&&&&",
"XXXX%%%%&&&&%%%%%%%%XXXXoooo%%%%%%%%&&&&%%%%XXXX&&&&----OOOO&&&&",
"XXXX%%%%&&&&%%%%%%%%XXXXoooo%%%%%%%%&&&&%%%%XXXX&&&&----OOOO&&&&",
"XXXX%%%%&&&&&&&&%%%%XXXXoooo%%%%&&&&&&&&%%%%@@@@&&&&----OOOO&&&&",
"XXXX%%%%&&&&&&&&%%%%XXXXoooo%%%%&&&&&&&&%%%%@@@@&&&&----OOOO&&&&",
"XXXX%%%%&&&&&&&&%%%%XXXXoooo%%%%&&&&&&&&%%%%@@@@&&&&----OOOO&&&&",
"XXXX%%%%&&&&&&&&%%%%XXXXoooo%%%%&&&&&&&&%%%%@@@@&&&&----OOOO&&&&",
"XXXX%%%%&&&&&&&&%%%%XXXXoooo&&&&&&&&&&&&@@@@    &&&&----OOOO&&&&",
"XXXX%%%%&&&&&&&&%%%%XXXXoooo&&&&&&&&&&&&@@@@    &&&&----OOOO&&&&",
"XXXX%%%%&&&&&&&&%%%%XXXXoooo&&&&&&&&&&&&@@@@    &&&&----OOOO&&&&",
"XXXX%%%%&&&&&&&&%%%%XXXXoooo&&&&&&&&&&&&@@@@    &&&&----OOOO&&&&",
"ooooOOOOooooooooooooOOOOooooOOOOOOOO$$$$    XXXX@@@@OOOOooooOOOO",
"ooooOOOOooooooooooooOOOOooooOOOOOOOO$$$$    XXXX@@@@OOOOooooOOOO",
"ooooOOOOooooooooooooOOOOooooOOOOOOOO$$$$    XXXX@@@@OOOOooooOOOO",
"ooooOOOOooooooooooooOOOOooooOOOOOOOO$$$$    XXXX@@@@OOOOooooOOOO"
};
