/* XPM */
static char *result[] = {
/* columns rows colors chars-per-pixel */
"64 64 256 2 ",
"   c #336547",
".  c #346647",
"X  c #346747",
"o  c #356747",
"O  c #366747",
"+  c #356847",
"@  c #366947",
"#  c #366A47",
"$  c #376B47",
"%  c #386C47",
"&  c #396E47",
"*  c #3A6F47",
"=  c #356748",
"-  c #366848",
";  c #386A48",
":  c #396B48",
">  c #3A6B48",
",  c #3B6C48",
"<  c #3C6D48",
"1  c #3D6E49",
"2  c #3E6F49",
"3  c #3B7047",
"4  c #3C7246",
"5  c #3C7247",
"6  c #417946",
"7  c #427A46",
"8  c #427B46",
"9  c #427249",
"0  c #44744A",
"q  c #47774A",
"w  c #48774A",
"e  c #49784A",
"r  c #4B7A4B",
"t  c #4C7B4B",
"y  c #4D7C4B",
"u  c #4F7E4B",
"i  c #507F4B",
"p  c #468046",
"a  c #478246",
"s  c #498147",
"d  c #488346",
"f  c #498546",
"g  c #4A8646",
"h  c #4A8746",
"j  c #4B8846",
"k  c #4C8946",
"l  c #4C8A46",
"z  c #4D8B46",
"x  c #4E8D45",
"c  c #4F8D45",
"v  c #508F45",
"b  c #52814C",
"n  c #53814C",
"m  c #55834C",
"M  c #57854D",
"N  c #58854D",
"B  c #59864D",
"V  c #5A874D",
"C  c #5B8D4B",
"Z  c #5E8B4E",
"A  c #529245",
"S  c #539345",
"D  c #539445",
"F  c #549445",
"G  c #549545",
"H  c #559645",
"J  c #559745",
"K  c #569745",
"L  c #579746",
"P  c #569845",
"I  c #579845",
"U  c #579945",
"Y  c #589945",
"T  c #589A45",
"R  c #599A45",
"E  c #599A46",
"W  c #5A9B46",
"Q  c #5B9B46",
"!  c #5C9947",
"~  c #5B9C46",
"^  c #5C9C46",
"/  c #5D9C46",
"(  c #5D9D46",
")  c #5D9D47",
"_  c #5E9D47",
"`  c #5E9E47",
"'  c #5F9E47",
"]  c #5F9A48",
"[  c #618E4E",
"{  c #628E4E",
"}  c #609E47",
"|  c #609F47",
" . c #619F47",
".. c #67934F",
"X. c #66954E",
"o. c #68944F",
"O. c #69954F",
"+. c #649A4B",
"@. c #619F48",
"#. c #629F48",
"$. c #6A9C4D",
"%. c #6F9D4F",
"&. c #6E9950",
"*. c #709B50",
"=. c #739D51",
"-. c #749E51",
";. c #62A048",
":. c #63A048",
">. c #63A148",
",. c #64A148",
"<. c #65A148",
"1. c #64A149",
"2. c #65A149",
"3. c #65A249",
"4. c #66A249",
"5. c #67A349",
"6. c #68A349",
"7. c #6CA34B",
"8. c #69A449",
"9. c #69A44A",
"0. c #6AA44A",
"q. c #6AA54A",
"w. c #6BA54A",
"e. c #6BA64B",
"r. c #6CA54B",
"t. c #6CA64A",
"y. c #6DA74A",
"u. c #6CA64B",
"i. c #6DA74B",
"p. c #6EA74B",
"a. c #6FA84B",
"s. c #70A84B",
"d. c #70A94B",
"f. c #71A94B",
"g. c #71A94C",
"h. c #72AA4C",
"j. c #73AA4C",
"k. c #74AA4C",
"l. c #74AB4C",
"z. c #75AB4D",
"x. c #76AC4D",
"c. c #77AC4D",
"v. c #77AD4D",
"b. c #78AD4D",
"n. c #79AE4E",
"m. c #7AAE4E",
"M. c #7AAF4E",
"N. c #7BAF4E",
"B. c #7CB04E",
"V. c #7DB04F",
"C. c #7EB14F",
"Z. c #7FB14F",
"A. c #7FB24F",
"S. c #76A151",
"D. c #77A151",
"F. c #78A252",
"G. c #79A252",
"H. c #7AA352",
"J. c #7AA551",
"K. c #7AA452",
"L. c #7DA652",
"P. c #7FA853",
"I. c #80B24F",
"U. c #82B34F",
"Y. c #80A953",
"T. c #80AB52",
"R. c #81AA53",
"E. c #82AA53",
"W. c #82AB53",
"Q. c #84AC53",
"!. c #84AD53",
"~. c #85AE53",
"^. c #85AD54",
"/. c #86AE54",
"(. c #80B250",
"). c #81B350",
"_. c #82B350",
"`. c #82B450",
"'. c #83B450",
"]. c #84B450",
"[. c #84B550",
"{. c #85B551",
"}. c #86B551",
"|. c #85B651",
" X c #86B651",
".X c #87B651",
"XX c #87B751",
"oX c #88B751",
"OX c #88B752",
"+X c #8AB752",
"@X c #8BB653",
"#X c #8AB254",
"$X c #8BB354",
"%X c #8CB355",
"&X c #8CB455",
"*X c #8DB555",
"=X c #8EB555",
"-X c #89B852",
";X c #8AB852",
":X c #8AB952",
">X c #8BB952",
",X c #8CB952",
"<X c #8CBA52",
"1X c #8DBA53",
"2X c #8EBB53",
"3X c #8FBB53",
"4X c #8FBC53",
"5X c #90B755",
"6X c #90BC53",
"7X c #91B855",
"8X c #92B956",
"9X c #93BA56",
"0X c #95BB56",
"qX c #90BC54",
"wX c #91BC54",
"eX c #92BD54",
"rX c #93BE54",
"tX c #94BC55",
"yX c #94BE54",
"uX c #94BF54",
"iX c #94BF55",
"pX c #95BF55",
"aX c #96BF55",
"sX c #96BC56",
"dX c #97BD56",
"fX c #98BE56",
"gX c #98BF57",
"hX c #96C055",
"jX c #97C055",
"kX c #97C155",
"lX c #98C155",
"zX c #98C156",
"xX c #99C156",
"cX c #9AC156",
"vX c #99C256",
"bX c #9AC256",
"nX c #9BC256",
"mX c #9BC356",
"MX c #9BC357",
"NX c #9CC356",
"BX c #9DC257",
"VX c #9CC357",
"CX c #9CC457",
"ZX c #9DC457",
"AX c #9EC457",
"SX c #9FC457",
"DX c #9EC557",
"FX c #9FC557",
"GX c #9FC657",
"HX c #A0C557",
"JX c #A0C657",
"KX c #A0C558",
"LX c #A0C658",
"PX c #A1C658",
"IX c #A1C758",
"UX c #A2C758",
/* pixels */
"UXU U   UX  UXUXU UXUXU U   UX  n.UXUXU U   UX   .U UXU U UXUXU UXU U UXU U UXU U UXUXU UXU U UXU } t.U UXU U U UXUXUXU U UXUXU ",
"UXU U UXUXU UXU U U UXU U UXUXU <.U UXU U UXUXU UXU U U UXUXUXU U UXU U ZXU U U UXUXUXU U UXUXU U PX[ UXUXUXU   UXUXU   UXUXUXU ",
"U U UXUXUXU U UXUXU U U UXUXUXU vXU U U UXUXUXU FXUXU   UXUXU   UXUXUXU AXUXU   UXUXU   UXUXUXU UXUXUXUXUXUXUX  UXh.U U UXUXC.U ",
"U   UXUXU   UXUXUXUXU   UXUXU   UXUXU   UXUXU   UXUXUX  UXU U U UXUXUXUXAXUXUX  UXU U U UXUXU U UXUXUXUXU U U U XX9XUX  UXUXU 5.",
"UX  UXU U U UXUXUXUXUX  UXU U U UXUXUX  UXU U U UXU U U U   U U UXU U U U U U U U   U U UXU U UXU U UXU U UXUX3XR UXUX  UX    UX",
"U U U   U U UXU U U U U U   U U UXU U U U   U U 6.UXUXU UXUX  U   U UXUXU UXUXU UXUX  U   U U UXUXU U UXUXPXUXUXUXU UXU U   UXUX",
"UXU UXUX  U   U U UXUXU UXUX  U z UXUXU UXUX  U O.LXUXU UXUXUX  UXUXUXUX).UXUXU UXUXUX  UXUXU UXUXD.UXUXUX1XU UXUXU U   UX  UXUX",
"UXU UXUXUX  UXUXJXUXUXU UXUXUX  UXUXUXU UXUXUX  UXUXU U U UXUXU UXUXUXU 9.4XT U U UXUXU UXUXUXU eXt.UXUXU U U U UXU U UXUXU UXU ",
"U U U UXUXU UXUXUXAXU U U UXUXU UXUX~ U U UXUXU UXeXUXUXU U UXU U 6Xa.UXUXU 3XUXU U UXU U UXUX$XU U UXU U UXUXU U ) UXl.t.yX2XUX",
"DXUXU U UXU U UXpXg.PXUXU U UXU U rXUXPXU U UXU U UXUXUX,.% ^ U lXUX[.@XiXU y '.U O T U UXIXhXW.  U   U U UXUXUXU K.UXUX  UXUXU ",
"x.>X ., U } hX).UX' v.UX .+ U } UXI.h.UXw.% U W xXyXUX~.UXw.h oXUX@.U UXU k.UXX.w.UXs U UXt.w.UXUX  UXUXU UXUXUXUXP UXUX  UX    ",
"W vXUXUXg U UXUXU U UXxXUXh.H.;X;.< UXDXUXw.H..Xa.0 ZXUXU   UXUXUXU UX>XU UXUXUXU U UXUXU U qXUXUXU UXUXUXU UX-XIXUXU UXU U   UX",
"  UXUXU   UXUXUXU UXUXUXU U UXjXU U UXUXU U UXUXUX  UXU U U UXUXU U UX:X  UXUXU   UXUXUXU UXlXU UXU U UXDX,XT | UXUXU U   UX  UX",
"  UXU U U UXUXU U UXUXU U UXU x U U UXU U UXU U U U U   U U UXU U UXU B.  UXU U U UXUXU U UXlX  U U UX1Xb.5XbXU U UXU U UXUXU UX",
"U U   U U UXU U UXU p U U UXUXp.  U   U U UXNX'.UXU UXUX  U   U U UXzXU U U   U U UXU U UXU w.UX  U t E U UXUXUXU W @.3X{.UXh.4.",
"U UXUX  U   U U UX0X XUXU UXUXUXUX  UXUXU UXLXUXUXU UXUXUX  UXUXU PXUXUXU UXUX  U   U U UXFXv.UXUX  UXUXU UXhXUXZXc.R.UX> DXgX} ",
"U UXUXUX  UXUXU UXoXUXUXUXU >XUXUXU UXUXUX>.R.UXU U U UXUXU UXUXUXq.IXUXU UXUXUX  UXUXU UXjXi.UXUXU UXUXUXU {.UXUX^ UXUX  UX    ",
"U U UXUXU UXUXUX8.q.U UXUXUXU U UXU U UXUXUXU 4.UXUXU U UXU U UXUXUXrXU U U UXUXU UXUXUXR PXQ U UXU U UXUX XrXUXZXUXU UXU U   UX",
"UXU U UXU U UX&Xp.U UXUXUX=XK - U U mXUXUXUXU ) k.UXU # ) :.eX{.6.ZXU jXUXU U UXU U UXnXN.J.q.& U U UXUXv.A UXU UXUXU U   UX  UX",
"UXU   ) ;.rX*XUXe U S.UXmXU N UX&.U u UXUXU   UXE U 4.UXR.2X_ lXU U U UXUX>.% U ' UX Xf.SXV.) i l U UX( U UXU T U UXU U UXUXU UX",
"VXUXm Y.U ' ~ UXUXUX  UXU U U UXUXUX  UXU U U UXUXU   UXUXU   UXUXU   UXZX| n Y.>XUX^ PXUXoXUXUX  U   U U UXUXUXU U U UXUXUXU U ",
"U U U U   U U UXU U U U   U U UXU U U U   U U UXUXUX  UXU U U UXUXUX  UXU U U UXUXU U UXUXU UXUXUX  UXUXU UXhXUXUXY 9 2X'.N.o.UX",
"UXUXU UXUX  U S UXUXU UXUX  U P UXUXU UXUX  U   U U U U   U U UXU U U U   U U UXU U UXU U U U UXUXU UXUXUXU n.UXUXUXK.UXo JXJXQ ",
"UXUXU UXUXUX  UXUXUXU UXUXUX  UXUXUXU UXUXUX  4.UXUXU UXUX  U z UXUXU UXUX  U   U U UXUX` UXU U UXU U UXUXn.vXUXx.U UXUX  UX    ",
"UXU U U UXUXU UXUXU U U UXUXU UXUXU U U UXUXU UXUXUXU UXUXUX  UXUXUXU UXUXUX  UXUXU UXUXUXG.| # U U UXUXj.I UXk.UXUXU UXU U   UX",
"x.UXUXU U UX~ a.u.a.UX<X`..XU U n.UXUXU U UXU 2.UXW U U UXUXU UXUXQ U U UXUXU UXUXUXU eXy.U 4.V f U UX' U UXU w.UXUXU U   UX  UX",
"' UXUXY   U [.UXUX  UXUXU U }.pXFX:X+XT : E W ZX3XHXUXU U UXU U rXUXUXU U UXU U UXUXyXOXJXU UXUX  U   U U UXFXQ U UXU U UXUXU UX",
"UXUX1XUXUXT.U UXUX  UX    UXLX] UXe.8.Y.UXo {.FX! z.^.3.> W J IXGX>X%.0.2 J J UXUXUXW.UXUXU UXUXUX  UXUXU UXlXUXU T w.N.l.UX2X).",
"UXUXU UXUXPXUXU UXU U   UXUXUXUXPX1.U UXAX  UX    UXMX#.PX-.8 UXq @ cXUXC = '.UXUXU UXUXU U U UXUXU UXUXUXU UXUXnXA.#XUX  UXUXU ",
"UXUXUXU #.UXUXU U   UX  UXUXU UXfX8 UXZXM.;.U   UXUXUXUX[.UXU U   UXUXUXUXt   U U UXvXC.UXUXU U UXU U UXNXV.lXUXUX~ UXUX  UX    ",
"UXUXUXUXU U UXU U UXUXU UXU U UXU i.UXUXCX&.UX  UXUXU UXJXU   UX  UXUXU PXoX$ U UXUXx.U z.;XU   U U UX>Xx.KXU '.AXUXU UXU U   UX",
"U UXUXUXUXU U U UXUXUXU U UXUXU U UXUXU UXUXoXU UXU U UXU U UXUXU UXU U UXU  XUXUXUXT UXUXU UXUX  U b :.U UXDXU UXUXU U   UX  UX",
"UXUXUXUXUXJXw.*.UX0 xX%Xq.A.UXU UXUXU U UXE j.U U UXUXU U UXUXUXU U UXUXU U UXUXUXUXUXUXUXU UXUXUX  UXUXU UXpXT U UXU U UXUXU UX",
"UXUXUXU UXUX,.BXUX  UX    UX3XU UXaXUXUXU U 6X  UXUXUXU UXUXUXU   UXUXUXU UXUXU U UXUXUXU U U UXUXU UXUXUXU UXUXU U U UXUXUXU U ",
"U UXUX  Z lXUXU UXU U   UXUXUXUX6.t.UXUXU UXxXU UXUXU U UXUXU U U UXUXU U UXQ.  U UXmX].UXUXU U UXU U UXbXb.bXUXUXU   UXUXU   UX",
"UXUXUXU I UXUXU U   UX  UXUXU UXPXc.UXU U UXxXU UXU U UXU U   U U UXU U UXU f UXU UXB.U s.{.U   U U UX Xg.PXU UXUXUX  UXU U U UX",
"UXUXU U E U UXU U UXUXU UXU U UX' {.U U UXU c U   U U UXUXq.UX  U   U U UXPXN.UXU U U UXUXU UXUX  U q _ U UXUXU U U U U   U U UX",
"U UXUXU UXU U U UXUXUXU U UXUXU U D.U U UXUXp.  UXUXU UXPXUXUXUX  UXUXU UXUXUXUXU U UXUXUXU UXUXUX  UXUXU UXPX .UXUXU UXUX  U   ",
"U UXUXUXUXUXU   UXUXU   UXUXUXU UXUXUXU UXUXUXU UXUXUXU <X<.UXUXU UXUXUXH UXUXU U UXUXUXU U U UXUXU UXUXUXU UXUXUXUXU UXUXUX  UX",
"UXU UXUXUXUXUX  UXU U U UXUXU U UXUXUXUXU OXUXU U UXLXUX4XU U UXU U UXUX=.mX    UXUXbXs.UXUXU U UXU U UXUXlX XUXUXU U U UXUXU UX",
"UXUXU UXU U U U U   U U UXU U UXU U UXUXoX3 U U UXUXhX*XsXU   U U UXeXUXD P   UXUXUXLX3.oXxXU   U U UXZXeXF.G Q U lXUXU U UXU U ",
"UXUXU U U PXUXM.UXe 5X2Xj U ' UXUXz.UXNX7.PX{ d UX+.mXUX6 UX^.  k.UXt.i.  UX  UXUXU Y UXUXU UXUX  U P.V.U UXUXG   UXUX;.. ' ' rX",
"U UXU U UXUX0.NXUX  UX    UX-XrXtXUXUXVXUXU UX3.>XSXU UXU U   UXUXUXPX2XUXUXU UXU U UXUXUXU UXUXUX  UXUXU UXUXE.UXUXJXUX../.4 0 ",
"U U U UXUXUXUXU UXU U   UXUXUX1XL.UX,.UXUXU U p UXUXU U   UX  UXUXU UXUXx.UXU U UXUXb.UXU U U UXUXU UXUXUXU UX$.UXUXU UX2XU   UX",
"UXU   UX;.UXUXU U   UX  UXUXU UX.XCXU U UXU U 4.U UXU U UXUXU UXU U UXU @.t.  UXUXUXU U UXUXU U UXU U UXUXUXU U UXU U UXF I.  UX",
"UXUX  UXU U UXU U UXUXU UXU U UXU U UXU U U UXUXU U U UXUXUXU U UXUXU U IXx.U UXUXU xX' N.eXQ   U U UXUXUXd F UXn.UXUXU U UXU UX",
"U U U U UXU U U UXUXUXU U UXUXU U UXUXUXU   UXUXUXU   UXUXU   UXUXUXU UXUXI.U UXU U UXUXY 5 UXUX* v UXUXeXY UXUXUXUXUXU UXUXU U ",
"UXUXU UXUXUXU   UXUXU   UXUXUXU UXUXUXUXUX  UXFXUXUX  UXU U U UXUXU U UXUX  U   U U UXUXUX  UXU U U UXUXU U UXUXUXUXU U UXiX  UX",
"UXUXU UXUXUXUX  UXU U U UXUXU U UXUXU U U U U   U U U U   U U UXU U UXU Y UX  UXUXU UXU U U U   U U UXU U UXU U UXU U UXU U U UX",
"UXU U U UXU U U U   U U UXU U UXU z U UXUXU UX;.UXUXU UXUX  U   U U UXUX) UXU UXUXUXU UXUXU UXUX  U   U U UXUXU   U U UXPXU U UX",
"U UXUXT U UXUXQ UXUX  jX8XU U UXbXz.UXUXAXU UXUXUXUXU UXUXUX  UXUXU UXUX.XUXU U UXUXUXUXUXU UXUXUX  UXUXU UXUX!.UXUXU UXUXB U   ",
"UXUXUXt.KXUXUXU UXUX  UX    PXUXr.UXUX3.U Z.B.UXw jXqXU _.UXU UXUX3XY dX[.w.U X U UXUXAXU U U UXUXU UXUXUXU UXm.UXUXUXT UXUX  UX",
"UXUXj.;.UXUXb.bXU UXU U   UXUXUXUXUX1 , UX6.CXUX  UX    nXUXU x.UXUX; PXUX) k x.U j.UX.X=XUXU U UXU U UXUXNXB.U U UXFXoXaXUXU UX",
"U h.kXUXU ' UXUXU U   UX  UXUXU UXDXa UXUXUXU UXU U   UXUXUXlX' UXUX  UX    UXUXx.R UXUXM UXL   U U UXPXwX  G U UXSXUXS P UXU U ",
"UX6.UXUXU | U UXU U UXUXU UXU U UXU v b.UXUXU U   UX  UXUXn.UXUXU UXU U   UXUXUXPXUXU UXU U 8XUXu U UXB.(.BXu U UXA.U.S < Q Q UX",
"UX/ U UXU jXU U U UXUXUXU U UXUXU U UXB.U UXU U UXUXU UXU U UXUXU U   UX  UXUXU UXUXU U   UXU UXUXU U   w.UXUXU U   bXr UX=.U UX",
"UXUXU U U UXUXU   UXUXU   UXUXUXU UXUXUXU U U UXUXUXU U UX~ U UXU U UXUXU UXU U U UXU U UXUXU U UXU U UX) U UXU U UXUXU UXU U UX",
"U UXUXU   UXUXUX  UXU U U UXUXU U UXUXUXUXU   UXUXU   UXUXUXU U U UXUXUXU U UXUXU U U UXUXUXUXU U U UXUXUXU U U UXUXUXU U UXUXU ",
"UXUXUXUX  UXU U U U   U U UXU U UXU U UXUXUX  UXU U U UXUXUXUXU   UXUXU   UXUXUXUXU   UXUXU UXUXU   UXUXUXUXU   UXUXU   UXUXUXU ",
"UXUXU U U U UXUXU UXUX  U   U U UXUXU UXU U U U   U U UXU UXUXUX  UXU U U UXUXUXUXUX  UXU U UXUXUX  UXU UXUXUX  UXU U U UXUXU U ",
"UXU UXUXU UXUXUXU UXUXUX  UXUXU UXUXeXU UXUXU UXUX  U   U U U U U U   U U UXU U U U U U   U U U U U U   U U U U U   U U UXU U UX",
"U zXUXUXU UXUXU U U UXUXU UXUXUXU UX&.UXUXUXU UXUXUX  UXUXU UXUXU UXUX  U   U U UXUXU UXUX  U UXUXU UXUXH UXUXU UXUX  U   U U UX",
"U UXUXU U U [.UXUXU U UXU U UXUXUXz.U UXUXU U U UXUXU UXUXUXUXUXU UXUXUX  UXUX[.UXUXU UXUXUXKXUXUXU UXUXUXUXUXU UXUXUX  UXUXU UX",
"UXuXd.FXUXU ) UXeXU   U U UXUXjX7 7XI U 2.UXUXU U UXU U UXUXUXU U U UXUXU UXUXUX3XT U U UXUX|.UXU U U UXUXbXU U U UXUXU UXUXUXU "
};
